<svg xmlns="http://www.w3.org/2000/svg" version="1.1" id="Layer_1" x="0" y="0" xml:space="preserve" width="174.182" height="53.857"><style type="text/css" id="style2">.st0{fill:#fff}</style><g id="g307" transform="translate(-3.659 14.928)" fill="#fff"><path id="path4" d="M14.458 3.535L53.963 19.35c-8.1.924-15.38 2.23-23.497 5.418l8.099-8.535-6.27-2.648-19.997 19.857 7.873 5.487c11.34-6.08 31.162-9.563 41.177-9.528l7.978-15.032L22.453-1.534z" class="st0" fill="#fff" stroke-width=".174"/><path transform="translate(-.696 -19.283) scale(.17418)" id="polygon8" class="st0" fill="#fff" d="M182.9 185.8L63 294.6l-38-26.5 122.1-97.5z"/><path transform="translate(-.696 -19.283) scale(.17418)" id="polygon12" class="st0" fill="#fff" d="M407.8 184.1l25.1-46.5-252.2-66L138 98.7z"/><path transform="translate(-.696 -19.283) scale(.17418)" id="polygon16" class="st0" fill="#fff" d="M260.4 80.2l31.9 7.8 65.5-58.4-28.3-4.6z"/><path transform="translate(-.696 -19.283) scale(.17418)" id="polygon20" class="st0" fill="#fff" d="M361 30.1l-63.3 59.3 30.4 7.4 60.3-62.3z"/><path id="path26" d="M92.23 15.64h10.713c.435 0 .784-.07 1.027-.226a1.54 1.54 0 00.54-.575c.122-.226.192-.453.227-.697.035-.243.035-.435.035-.61a3.21 3.21 0 00-.053-.574 1.584 1.584 0 00-.243-.592 1.959 1.959 0 00-.575-.558c-.244-.174-.592-.33-1.01-.452l-7.63-2.404a2.85 2.85 0 01-.365-.122 6.413 6.413 0 01-1.289-.714 2.607 2.607 0 01-.627-.61 2.881 2.881 0 01-.523-.853 6.097 6.097 0 01-.296-.958 6.048 6.048 0 01-.14-.958c-.017-.314-.034-.61-.034-.889a8.7 8.7 0 01.209-1.846c.14-.645.487-1.22 1.027-1.742.506-.47 1.028-.784 1.603-.906a7.56 7.56 0 011.568-.174h11.13v2.91H97.63c-.261 0-.522.017-.784.07a1.615 1.615 0 00-.731.366c-.244.226-.383.47-.436.766-.052.296-.07.54-.07.714 0 .418.105.836.314 1.22.21.383.697.713 1.48.975l7.073 2.23a14.88 14.88 0 011.637.626c.453.227.819.47 1.115.75.296.278.522.592.696.922.175.349.296.68.366 1.028a6.817 6.817 0 01.209 1.776c0 .61-.052 1.238-.174 1.865a3.989 3.989 0 01-.784 1.724c-.488.627-1.01 1.01-1.602 1.167a7.998 7.998 0 01-1.847.226H92.213V15.64z" stroke-width=".174" fill="#fff"/><path id="path28" d="M120.309 15.832a7.064 7.064 0 001.027-.174 5.562 5.562 0 001.028-.366c.331-.174.627-.383.888-.662.227-.244.384-.505.506-.801.121-.296.209-.592.278-.888.07-.297.105-.593.105-.889.017-.296.017-.557.017-.801V-.802h3.64v12.54c0 .837-.104 1.673-.296 2.526-.191.854-.661 1.655-1.393 2.422a5.257 5.257 0 01-1.62 1.167 8.94 8.94 0 01-1.811.627 9.25 9.25 0 01-1.777.243c-.575.035-1.08.035-1.515.035-.436 0-.941-.017-1.516-.035a10.865 10.865 0 01-1.777-.243 8.941 8.941 0 01-1.811-.627 5.471 5.471 0 01-1.62-1.167c-.731-.75-1.202-1.568-1.393-2.422a11.606 11.606 0 01-.296-2.525V-.802h3.64V11.25c0 .54.035 1.097.122 1.707a2.93 2.93 0 00.819 1.655c.26.278.54.505.87.662.314.174.662.296.993.365.349.087.68.14 1.028.175.348.034.644.034.923.034.296.018.592 0 .94-.017z" stroke-width=".174" fill="#fff"/><path id="path30" d="M145.93 16.442c-.138.365-.295.696-.435.975a3.176 3.176 0 01-.505.732 1.923 1.923 0 01-.749.453c-.296.104-.662.156-1.08.156a3.2 3.2 0 01-1.15-.191 2.35 2.35 0 01-.766-.505 2.736 2.736 0 01-.505-.732 23.213 23.213 0 01-.366-.888l-4.946-12.907a2.636 2.636 0 00-.192-.4c-.087-.158-.191-.227-.279-.227-.139 0-.226.087-.26.261-.036.174-.036.279-.036.314l.087 15.049h-3.64V1.514c0-.627.14-1.115.418-1.445.279-.349.592-.593.94-.767a2.974 2.974 0 011.028-.296c.349-.035.593-.035.732-.035.557 0 1.01.07 1.393.192.384.122.697.313.94.54.245.226.454.505.628.801.174.296.314.627.435.958l5 12.907c.087.209.174.366.26.505.088.14.175.209.262.209.087 0 .174-.07.261-.209.087-.14.174-.314.262-.505l4.999-12.907c.209-.557.435-.993.679-1.306.244-.314.522-.575.819-.75.296-.174.592-.295.905-.348.314-.052.645-.087.993-.087.906 0 1.655.21 2.23.61.592.4.888 1.045.888 1.933v17.018h-3.64l.104-15.05c0-.26-.035-.418-.122-.487-.087-.07-.157-.105-.209-.105-.087 0-.191.087-.279.227a2.639 2.639 0 00-.191.4z" stroke-width=".174" fill="#fff"/><path id="path32" d="M169.794-.977c.68.018 1.358.088 2.038.227a9.3 9.3 0 012.02.61 5.77 5.77 0 011.777 1.184 5.484 5.484 0 011.184 1.69c.296.644.523 1.323.68 2.02.156.697.26 1.41.296 2.125.035.714.052 1.394.052 2.02 0 .645-.017 1.324-.07 2.038a14.205 14.205 0 01-.296 2.108 9.15 9.15 0 01-.662 2.02 5.795 5.795 0 01-1.184 1.69 5.873 5.873 0 01-1.777 1.185 9.3 9.3 0 01-2.02.61c-.697.121-1.376.208-2.056.226-.679.017-1.306.035-1.846.035-.575 0-1.184-.018-1.864-.035a11.587 11.587 0 01-2.038-.227 9.301 9.301 0 01-2.02-.61 5.77 5.77 0 01-1.777-1.184 6.02 6.02 0 01-1.289-1.829 10.047 10.047 0 01-.662-2.09 12.604 12.604 0 01-.243-2.09c-.035-.68-.035-1.306-.035-1.846 0-.662.017-1.342.052-2.056.035-.714.122-1.41.279-2.107.14-.697.366-1.359.662-1.986a5.857 5.857 0 011.236-1.707 5.873 5.873 0 011.777-1.184c.662-.28 1.324-.47 2.003-.61.68-.122 1.359-.21 2.038-.227.68-.017 1.306-.034 1.899-.034.54 0 1.167.017 1.846.034zm-7.96 11.914c.07.575.156 1.08.261 1.516.104.435.226.784.366 1.08.14.278.296.522.453.731.278.366.592.662.975.871.366.21.766.366 1.184.488.419.105.871.174 1.36.209.47.035.975.035 1.462.035.488 0 .976-.018 1.446-.035.47-.035.923-.104 1.359-.209a4.58 4.58 0 001.201-.488c.366-.209.697-.505.993-.87.174-.21.314-.454.453-.75a5.98 5.98 0 00.366-1.08c.104-.418.192-.923.261-1.515.07-.592.105-1.271.105-2.038 0-.836-.035-1.55-.105-2.142a12.604 12.604 0 00-.261-1.533 5.101 5.101 0 00-.383-1.045 4.86 4.86 0 00-.436-.697 3.692 3.692 0 00-2.177-1.306 14.648 14.648 0 00-2.822-.262c-1.01 0-1.95.088-2.822.262-.87.174-1.585.61-2.16 1.306-.365.488-.661 1.132-.87 1.95-.21.82-.314 1.97-.314 3.467 0 .784.035 1.48.105 2.055z" stroke-width=".174" fill="#fff"/></g></svg>