<svg xmlns="http://www.w3.org/2000/svg" width="174.182" height="53.857" fill="#fff"><path d="M10.799 18.463l39.505 15.815c-8.1.924-15.38 2.23-23.497 5.418l8.099-8.535-6.27-2.648L8.639 48.37l7.873 5.487c11.34-6.08 31.162-9.563 41.177-9.528l7.978-15.032-46.873-15.903zm16.704 9.545L6.618 46.958 0 42.343 21.267 25.36zm39.173-.296l4.372-8.099L27.119 8.116l-7.437 4.72zM41.001 9.614l5.556 1.359L57.967.801 53.038 0zM58.524.888L47.498 11.217l5.295 1.289L63.297 1.654zm30.047 29.68h10.713c.435 0 .784-.07 1.027-.226a1.54 1.54 0 0 0 .54-.575c.122-.226.192-.453.227-.697s.035-.435.035-.61a3.21 3.21 0 0 0-.053-.574c-.04-.212-.123-.413-.243-.592a1.96 1.96 0 0 0-.575-.558c-.244-.174-.592-.33-1.01-.452l-7.63-2.404a2.85 2.85 0 0 1-.365-.122 6.41 6.41 0 0 1-1.289-.714c-.242-.167-.454-.373-.627-.61a2.88 2.88 0 0 1-.523-.853c-.125-.311-.224-.631-.296-.958a6.05 6.05 0 0 1-.14-.958l-.034-.889a8.7 8.7 0 0 1 .209-1.846c.14-.645.487-1.22 1.027-1.742.506-.47 1.028-.784 1.603-.906a7.56 7.56 0 0 1 1.568-.174h11.13v2.91h-9.894a3.93 3.93 0 0 0-.784.07 1.61 1.61 0 0 0-.731.366c-.244.226-.383.47-.436.766s-.07.54-.07.714c0 .418.105.836.314 1.22s.697.713 1.48.975l7.073 2.23a14.88 14.88 0 0 1 1.637.626c.453.227.819.47 1.115.75a3.48 3.48 0 0 1 .696.922c.175.349.296.68.366 1.028.147.58.218 1.177.209 1.776 0 .61-.052 1.238-.174 1.865a3.99 3.99 0 0 1-.784 1.724c-.488.627-1.01 1.01-1.602 1.167a8 8 0 0 1-1.847.226H88.554v-2.875zm28.079.192a7.15 7.15 0 0 0 1.027-.174 5.56 5.56 0 0 0 1.028-.366c.331-.174.627-.383.888-.662a2.59 2.59 0 0 0 .506-.801c.121-.296.209-.592.278-.888a3.86 3.86 0 0 0 .105-.889l.017-.801V14.126h3.64v12.54c0 .837-.104 1.673-.296 2.526s-.661 1.655-1.393 2.422c-.46.489-1.01.885-1.62 1.167a8.94 8.94 0 0 1-1.811.627 9.25 9.25 0 0 1-1.777.243l-1.515.035c-.436 0-.941-.017-1.516-.035-.598-.032-1.192-.113-1.777-.243a8.94 8.94 0 0 1-1.811-.627 5.47 5.47 0 0 1-1.62-1.167c-.731-.75-1.202-1.568-1.393-2.422a11.6 11.6 0 0 1-.296-2.525V14.126h3.64v12.052a11.94 11.94 0 0 0 .122 1.707 2.93 2.93 0 0 0 .819 1.655c.26.278.54.505.87.662a3.59 3.59 0 0 0 .993.365c.349.087.68.14 1.028.175s.644.034.923.034c.296.018.592 0 .94-.017zm25.621.61c-.138.365-.295.696-.435.975-.133.266-.303.513-.505.732a1.92 1.92 0 0 1-.749.453c-.296.104-.662.156-1.08.156a3.2 3.2 0 0 1-1.15-.191 2.35 2.35 0 0 1-.766-.505c-.207-.215-.378-.462-.505-.732l-.366-.888-4.946-12.907a2.72 2.72 0 0 0-.192-.4c-.087-.158-.191-.227-.279-.227-.139 0-.226.087-.26.261a1.65 1.65 0 0 0-.036.314l.087 15.049h-3.64V16.442c0-.627.14-1.115.418-1.445.279-.349.592-.593.94-.767a2.98 2.98 0 0 1 1.028-.296c.349-.035.593-.035.732-.035.557 0 1.01.07 1.393.192a2.46 2.46 0 0 1 .94.54c.243.227.454.505.628.801s.314.627.435.958l5 12.907c.087.209.174.366.26.505s.175.209.262.209.174-.07.261-.209a4.76 4.76 0 0 0 .262-.505l4.999-12.907c.209-.557.435-.993.679-1.306a3.01 3.01 0 0 1 .819-.75c.297-.175.592-.295.905-.348s.645-.087.993-.087c.906 0 1.655.21 2.23.61.592.4.888 1.045.888 1.933V33.46h-3.64l.104-15.05c0-.26-.035-.418-.122-.487s-.157-.105-.209-.105c-.087 0-.191.087-.279.227a2.64 2.64 0 0 0-.191.4zm23.864-17.419c.68.018 1.358.088 2.038.227a9.3 9.3 0 0 1 2.02.61 5.77 5.77 0 0 1 1.777 1.184 5.48 5.48 0 0 1 1.184 1.69c.296.644.523 1.323.68 2.02a12.67 12.67 0 0 1 .296 2.125l.052 2.02-.07 2.038a14.26 14.26 0 0 1-.296 2.108 9.15 9.15 0 0 1-.662 2.02c-.29.63-.691 1.202-1.184 1.69-.515.5-1.117.902-1.777 1.185a9.3 9.3 0 0 1-2.02.61c-.697.121-1.376.208-2.056.226l-1.846.035c-.575 0-1.184-.018-1.864-.035s-1.367-.091-2.038-.227a9.3 9.3 0 0 1-2.02-.61 5.77 5.77 0 0 1-1.777-1.184 6.02 6.02 0 0 1-1.289-1.829 10.06 10.06 0 0 1-.662-2.09c-.139-.689-.22-1.388-.243-2.09l-.035-1.846.052-2.056c.035-.714.122-1.41.279-2.107a8.62 8.62 0 0 1 .662-1.986c.305-.639.724-1.217 1.236-1.707a5.87 5.87 0 0 1 1.777-1.184c.66-.283 1.324-.47 2.003-.61.68-.122 1.359-.21 2.038-.227l1.899-.034 1.846.034zm-7.96 11.914c.07.575.156 1.08.261 1.516a5.53 5.53 0 0 0 .366 1.08c.14.278.296.522.453.731.278.366.592.662.975.871.366.21.766.366 1.184.488.419.105.871.174 1.36.209l1.462.035 1.446-.035a8.49 8.49 0 0 0 1.359-.209 4.58 4.58 0 0 0 1.201-.488c.366-.209.697-.505.993-.87.174-.21.314-.454.453-.75a5.98 5.98 0 0 0 .366-1.08c.104-.418.192-.923.261-1.515a17.76 17.76 0 0 0 .105-2.038l-.105-2.142c-.055-.516-.143-1.028-.261-1.533a5.1 5.1 0 0 0-.383-1.045 4.86 4.86 0 0 0-.436-.697 3.69 3.69 0 0 0-2.177-1.306 14.65 14.65 0 0 0-2.822-.262c-1.01 0-1.95.088-2.822.262s-1.585.61-2.16 1.306c-.365.488-.661 1.132-.87 1.95s-.314 1.97-.314 3.467c0 .784.035 1.48.105 2.055z"/></svg>