<svg xmlns="http://www.w3.org/2000/svg" width="300" height="53.111"><style><![CDATA[.B{fill:#5a963a}.C{fill:#dc942b}.D{fill:#d3d4d5}.E{fill:#cacbcc}.F{fill:#df9e29}.G{fill:#4f8236}.H{fill:#d4d5d6}.I{fill:#5a953a}.J{fill:#bb2329}.K{fill:#558d38}.L{fill:#da8f2c}.M{fill:#528837}.N{fill:#d8d9da}.O{fill:#cfd0d0}.P{fill:#921d23}.Q{fill:#4e88bb}.R{fill:#5d9b3b}.S{fill:#aa2127}.T{fill:#e09f29}.U{fill:#548c38}.V{fill:#e1e2e3}.W{fill:#dededf}.X{fill:#579139}.Y{fill:#d8892d}.Z{fill:#4a7a34}.a{fill:#6da9d7}.b{fill:#d9dada}.c{fill:#629dcd}.d{fill:#d0d0d1}.e{fill:#d6822e}.f{fill:#467333}.g{fill:#5792c4}.h{fill:#417baf}]]></style><defs><clipPath id="A"><path fill="none" d="M0 0h300v53.111H0z"/></clipPath></defs><g clip-path="url(#A)"><path d="M144.242.001c10.749.013 20.431 6.505 24.524 16.445s1.789 21.367-5.835 28.945-19.065 9.812-28.979 5.659-16.348-13.874-16.295-24.623A26.57 26.57 0 0 1 144.242.001" fill="#fff"/><g fill="#004469"><path d="M225.973 21.548c.145-.005.158-.1.2-.167.99-1.669 2.68-2.803 4.6-3.087a12.74 12.74 0 0 1 5.028.054 5.63 5.63 0 0 1 2.863 1.475c.76.792 1.241 1.81 1.37 2.9a9.98 9.98 0 0 1 .062 2l-.246 4.49-.205 4.6-.041 2.775c0 .243-.006.25-.254.25q-2.513 0-5.026 0c-.061.008-.123-.006-.175-.039l.275-2.29.32-3.073.236-4.876a7.7 7.7 0 0 0-.15-1.85 2.91 2.91 0 0 0-2.242-2.31c-.991-.265-2.036-.249-3.018.045a4.49 4.49 0 0 0-2.528 2.011 7.42 7.42 0 0 0-1 2.753 38.28 38.28 0 0 0-.431 4.4q-.128 2.439-.147 4.88c0 .059-.01.117-.006.176.009.143-.068.185-.195.175h-.14-4.6a1.31 1.31 0 0 0-.141 0c-.154.017-.2-.05-.187-.2l.106-1.437.254-3.5.33-5.681.185-4.493.148-5.021.057-3.933c0-.3.005-.3.283-.3q2.355 0 4.71 0c.282 0 .291.005.271.293l-.237 3.364q-.132 1.926-.251 3.855l-.071 1.509v.262M73.298 34.01c-.121.008-.134.073-.162.12-.866 1.478-2.321 2.516-4 2.855a11.18 11.18 0 0 1-5.8-.157 5.45 5.45 0 0 1-1.061-.459 4.74 4.74 0 0 1-2.477-3.7 11.46 11.46 0 0 1-.039-2.282l.3-4.768.243-6.108.005-.738c-.008-.182.054-.262.24-.242a1.35 1.35 0 0 0 .176 0h4.429.246c.121 0 .166.048.152.171l-.066.734-.459 6.2-.163 3.719a5.28 5.28 0 0 0 .212 1.525 2.9 2.9 0 0 0 2.129 2.084 5.27 5.27 0 0 0 2.947-.043 4.2 4.2 0 0 0 2.588-2.274 7.56 7.56 0 0 0 .7-2.525c.213-1.8.3-3.616.363-5.43l.116-3.863c.01-.311-.038-.3.315-.3h4.6c.236.008.24.008.229.229l-.046.559-.224 3.119-.333 5.4-.171 3.966-.13 4.741a.64.64 0 0 0 0 .07c.023.166-.043.234-.215.219-.127-.011-.257 0-.386 0q-1.986 0-3.973 0c-.287 0-.289 0-.289-.282v-2.179z"/><path d="M84.429 22.547l.368-2.3.147-.9c.02-.149.088-.21.24-.246l4.07-.762a26.62 26.62 0 0 1 3.959-.254 11.67 11.67 0 0 1 3.868.605 5.96 5.96 0 0 1 .861.392 3.99 3.99 0 0 1 2.146 3.619c.029 1.266-.088 2.528-.161 3.791l-.245 3.855-.217 6.248c0 .14 0 .243-.2.242l-4.815-.008a.4.4 0 0 1-.108-.033l.615-9.328c-.048 0-.088-.006-.111.01a6.61 6.61 0 0 1-2 .911l-2.822.85a8.28 8.28 0 0 0-1.52.633 3.89 3.89 0 0 0-.935.68 2.22 2.22 0 0 0-.61 2.132 1.77 1.77 0 0 0 .943 1.207 3.74 3.74 0 0 0 1.514.408 7.72 7.72 0 0 0 3.045-.391l.326-.1c.1.065.033.131.017.191q-.4 1.365-.791 2.73c-.037.129-.07.227-.236.256a14.43 14.43 0 0 1-6-.029 5.72 5.72 0 0 1-1.213-.457c-1.439-.688-2.404-2.089-2.534-3.678a5.61 5.61 0 0 1 .085-1.956 4.51 4.51 0 0 1 1.542-2.492c.797-.638 1.7-1.13 2.668-1.454a33.3 33.3 0 0 1 3.821-1.051 26.72 26.72 0 0 0 2.607-.7 4.93 4.93 0 0 0 1.525-.776 1.66 1.66 0 0 0 .608-1.847c-.124-.447-.432-.82-.847-1.027-.491-.253-1.03-.399-1.581-.429a14.96 14.96 0 0 0-4.768.464c-.988.243-1.961.546-2.913.907a.87.87 0 0 1-.352.1m-64.337-4.028l-.868 1.87q-3.72 7.985-7.136 16.109c-.164.391-.082.32-.471.321q-2.479.006-4.958 0c-.282 0-.262.062-.366-.256-1.593-4.905-3.353-9.755-5.1-14.608Q.64 20.432.093 18.895a1 1 0 0 1-.093-.33.78.78 0 0 1 .355-.032h4.536c.437 0 .35 0 .454.331q1.988 6.381 3.97 12.764a.86.86 0 0 0 .155.391c.116-.084.129-.217.171-.327q2.475-6.381 4.944-12.763c.172-.442.057-.395.562-.395q2.249 0 4.5 0zm177.781.017a.6.6 0 0 1-.113.336q-4.105 8.755-7.851 17.67a.39.39 0 0 1-.437.284l-4.956-.006c-.3 0-.3 0-.391-.268-1.721-5.283-3.629-10.5-5.5-15.73l-.808-2.255c.097-.048.206-.065.313-.047q2.32 0 4.64 0c.307 0 .308 0 .4.3q1.991 6.4 3.983 12.8a.92.92 0 0 0 .153.389.79.79 0 0 0 .189-.375q2.473-6.38 4.94-12.762a.66.66 0 0 0 .052-.13c.034-.19.155-.227.331-.226h4.886c.056 0 .112.011.169.017"/><path d="M57.189 32.979l-.617 3.574c-.036.218-.19.215-.325.25-1.193.303-2.418.461-3.649.47a10.38 10.38 0 0 1-2.374-.2c-1.638-.282-2.861-1.663-2.941-3.323a14.21 14.21 0 0 1-.038-2.665q.111-2.316.256-4.629l.257-3.82c.038-.606.089-.487-.438-.494-.62-.008-1.242 0-1.863 0-.229 0-.236-.006-.227-.231q.055-1.544.12-3.088c.013-.287.022-.289.3-.291h2.074c.341 0 .366.092.391-.386q.075-1.351.148-2.7c.014-.273.015-.273.29-.333q2.076-.451 4.15-.9a.57.57 0 0 1 .335-.018l-.033.688q-.054 1.668-.1 3.336c-.01.313-.005.315.329.315h3.831.28c.093 0 .148.048.141.15l-.008.245q-.061 1.475-.126 2.948c-.01.247.043.266-.274.266q-1.969 0-3.937 0h-.246c-.1-.005-.154.034-.161.136 0 .059-.011.116-.014.175l-.372 7.613a6.75 6.75 0 0 0 .127 1.92c.133.854.906 1.459 1.767 1.384.868.009 1.732-.107 2.567-.344a.61.61 0 0 1 .38-.047m211.655-10.23a20.87 20.87 0 0 0-2.113-.576 11.8 11.8 0 0 0-3.21-.261c-2.224.057-4.135 1.595-4.667 3.756a8 8 0 0 0-.043 4.4 4.33 4.33 0 0 0 3.77 3.31 10.21 10.21 0 0 0 3.938-.243l1.452-.405c.075-.036.158-.053.241-.05.064.1.022.2.006.3l-.536 3.434a.3.3 0 0 1-.269.294c-1.985.477-4.03.653-6.067.521a9.94 9.94 0 0 1-2.873-.62 7.31 7.31 0 0 1-4.577-4.933c-.404-1.386-.564-2.831-.473-4.272a12.02 12.02 0 0 1 .791-3.9c.962-2.606 3.204-4.53 5.926-5.085 1.236-.277 2.503-.386 3.768-.324a19.93 19.93 0 0 1 4.34.6c.419.108.345.038.378.422l.245 3.362c.019.092.01.188-.027.275m5.718 14.078q-1.16 0-2.32 0c-.288 0-.294 0-.278-.283l.159-2.384.181-2.663q.172-2.806.334-5.611.088-1.542.153-3.087.176-4 .283-8l.045-2.212c.008-.324.01-.326.338-.326q2.337 0 4.675 0c.3 0 .31 0 .289.31l-.3 4.346-.177 2.874q-.172 3.28-.333 6.56l-.161 4q-.113 3.108-.215 6.214c-.009.259-.01.262-.28.262h-2.39m-168.042 0h-2.39c-.243 0-.252-.006-.236-.254l.232-3.506.251-3.891q.176-3.05.33-6.1l.171-4.354.172-6.145c.009-.312.01-.316.306-.316q2.355 0 4.71 0c.3 0 .306 0 .284.315l-.317 4.486q-.13 2-.232 4-.176 3.455-.331 6.913l-.169 4.564q-.071 2.018-.136 4.038c-.009.251-.011.255-.288.256q-1.179 0-2.356 0M37.25 20.948a1.09 1.09 0 0 0 .232-.3c.575-.877 1.371-1.587 2.309-2.057a5.84 5.84 0 0 1 3.434-.426c.55.083.557.093.578.657l.116 3.476c.015.088.003.179-.034.26l-.665-.18c-.981-.262-2.018-.22-2.974.12a4.2 4.2 0 0 0-2.318 2.093 7.64 7.64 0 0 0-.768 2.539 44.47 44.47 0 0 0-.317 4.975l-.023 4.428c0 .327.025.3-.306.3q-2.249 0-4.5 0a.5.5 0 0 1-.317-.043l.14-2.3.248-4.031.274-7.688.024-2.812.005-1.089c0-.325-.05-.333.353-.333q1.9 0 3.8 0h.527c.228.005.236.008.227.237l-.079 1.86c0 .1-.046.2.037.317m206.661 15.836l.22-2.64.248-3.469.338-9.022.028-2.811c0-.284-.046-.317.3-.316h4.747c.3 0 .311 0 .283.31l-.384 5.607-.192 5.3-.1 6.78c-.005.33.023.3-.3.3q-2.443 0-4.886 0a.47.47 0 0 1-.293-.042m-222.249.049l.175-2.073.248-3.258.348-8 .075-4.568a1.93 1.93 0 0 0 0-.21c-.018-.161.066-.2.208-.191h.14 4.642.176c.131-.006.187.039.173.185l-.287 3.817-.175 3.229c-.147 3.569-.215 7.14-.229 10.713 0 .059-.005.117 0 .176.013.135-.046.191-.181.183-.106-.006-.212 0-.316 0h-5z"/><path d="M25.249 15.447h-2.353c-.274 0-.278-.005-.273-.273q.029-1.456.062-2.913c.008-.289.011-.293.3-.294q2.372 0 4.742 0c.287 0 .292.005.28.293q-.061 1.474-.13 2.946c-.01.236-.015.241-.273.241h-2.353m222.347-3.481h2.39c.247 0 .256.006.246.255q-.057 1.493-.127 2.984c-.01.236-.018.24-.271.24q-2.355 0-4.71 0c-.246 0-.255-.005-.25-.252q.025-1.493.06-2.985c.006-.236.011-.241.273-.241h2.39"/></g><path d="M136.267 15.755l-.827.694a13.41 13.41 0 0 0-1.92 2.067l-.219.269c-.174.041-.357-.012-.483-.14-.116-.1-.222-.209-.329-.316l-6.581-6.557c-.081-.068-.14-.158-.172-.259a10.8 10.8 0 0 1 .97-1.147 23.08 23.08 0 0 1 2.334-2.213 1.24 1.24 0 0 1 .147-.093l6.969 6.989c.154.155.335.3.312.559-.036.059-.094.102-.161.12-.012-.015-.034-.019-.051-.01s-.014.022.01.037" fill="#e2a628"/><path d="M152.321 37.239a18.21 18.21 0 0 0 1.641-1.51l.9-1.021c.254.039.395.241.558.4q3.171 3.161 6.331 6.332c.2.2.452.334.59.589a16.12 16.12 0 0 1-1.711 1.827c-.3.307-.623.59-.967.847-.251-.144-.363-.417-.562-.613l-6.332-6.341c-.158-.161-.427-.231-.443-.513" fill="#c2242a"/><path d="M128.636 44.584a13.45 13.45 0 0 1-1.465-1.359c-.339-.322-.652-.671-.935-1.044a.58.58 0 0 1 .2-.278q3.257-3.241 6.5-6.493c.208-.237.446-.446.706-.624l.831.942a19.08 19.08 0 0 0 1.56 1.451.62.62 0 0 1-.24.45q-3.339 3.352-6.693 6.69a1.31 1.31 0 0 1-.245.2l-.087.042c-.045.014-.092.015-.138.025" class="R"/><path d="M128.637 44.581l.08-.09.437-.4q3.205-3.2 6.406-6.4l.478-.507a17.88 17.88 0 0 0 2.1 1.316 1.78 1.78 0 0 1 .427.232.23.23 0 0 1-.113.117c-.034.025-.064.054-.09.087l-7.206 7.214a.66.66 0 0 1-.259.176 15.3 15.3 0 0 1-2.258-1.737" class="I"/><path d="M156.07 47.235c-.693.436-1.424.809-2.184 1.114-.236-.007-.457-.116-.605-.3q-3.763-3.746-7.514-7.5c-.121-.12-.213-.282-.4-.325-.057-.287-.059-.3.2-.326.756-.074 1.491-.254 2.231-.4.078-.042.181.005.247-.073h-.006c.064-.052.162 0 .218-.069h0c.059-.03.128-.033.189-.007s.107.077.126.141a2.32 2.32 0 0 0 .492.587q3.184 3.186 6.371 6.368a6.26 6.26 0 0 0 .512.478c.1.076.226.153.125.313" class="S"/><path d="M154.651 18.139l-1.27-1.338-.689-.637c.261-.171.493-.382.687-.626q3.02-3.016 6.041-6.028c.2-.2.329-.48.59-.622h.015l-.014-.014c-.025-.021-.04-.051-.04-.084s.014-.063.04-.083a14.07 14.07 0 0 1 1.682 1.625c.247.231.468.488.659.766-.46-.145-.692.192-.954.455q-3.134 3.131-6.266 6.26c-.138.138-.25.32-.479.327" fill="#76b2df"/><path d="M162.337 42.029a.86.86 0 0 1-.493-.312q-2.882-2.882-5.764-5.76l-1.154-1.131a.42.42 0 0 1-.068-.12h0c.065-.017.041-.1.092-.125l1.193-1.9c.219-.052.349.087.483.22q2.785 2.8 5.582 5.578l1.43 1.4c.091.057.152.15.168.256-.431.675-.923 1.309-1.469 1.894" class="J"/><path d="M125.736 11.514a1.65 1.65 0 0 1 .548.424l6.256 6.253a2.06 2.06 0 0 0 .761.592 23.51 23.51 0 0 0-1.281 2.226c-.224.045-.34-.117-.47-.247q-3.257-3.262-6.518-6.52c-.241-.253-.507-.481-.793-.682a14.82 14.82 0 0 1 1.5-2.048" class="F"/><path d="M136.467 15.608c-.479-.6-1.054-1.1-1.582-1.649l-1.557-1.544-1.542-1.558-1.56-1.54-.888-.884a.39.39 0 0 1-.153-.372h0c.121-.01.167-.112.232-.191.52-.455 1.08-.86 1.675-1.211a3.31 3.31 0 0 1 .572.561l6.787 6.772c.1.1.215.187.2.352a24.38 24.38 0 0 0-2.177 1.265" class="T"/><path d="M156.074 47.235c-.02-.041-.031-.1-.064-.12-.321-.214-.61-.474-.857-.77q-3.169-3.159-6.33-6.325c-.154-.155-.339-.288-.373-.534-.011-.089-.106-.116-.19-.133l1.863-.772c.095-.067.202-.114.315-.14.205-.1.3.07.409.18q3.26 3.264 6.526 6.524l.5.488c.113.107.22.224.094.392 0 .019-.015.025-.034.02-.044.003-.083.03-.1.071a7.88 7.88 0 0 1-1.273.829h0a1.53 1.53 0 0 1-.485.285" fill="#b52228"/><path d="M123.012 37.394a11.49 11.49 0 0 1-.917-2.03 1.23 1.23 0 0 1 .325-.408l6.833-6.823c.018-.018.032-.041.041-.065-.083-.09-.257-.033-.308-.178.4-.092.805-.074 1.207-.126l.45-.036c.254-.024.259-.025.293.241.022.159.024.322.036.483.073.112-.01.25.06.362l.015.115c.054.1-.009.214.06.307.016.012.02.034.009.051.043.15-.014.31-.141.4l-7.5 7.464c-.125.124-.233.308-.464.241" class="G"/><path d="M157.966 46.024a.3.3 0 0 0-.1-.247c-.6-.492-1.112-1.069-1.659-1.612q-2.685-2.672-5.363-5.353c-.13-.129-.209-.316-.406-.372l1.884-1.2a15.08 15.08 0 0 1 1.817 1.723l2.1 2.1q1.21 1.212 2.421 2.421l.643.641c.178.152.303.358.355.587a12.25 12.25 0 0 1-1.689 1.317" fill="#bc2329"/><path d="M133.286 29.167a3.94 3.94 0 0 1-.21-1.125c-.055-.282.127-.373.349-.415a2.47 2.47 0 0 1 .456-.018q10.292 0 20.586 0a1.76 1.76 0 0 1 .726.082c.159.069.261.162.175.35.006.287-.042.573-.141.843a1.4 1.4 0 0 1-.689.08q-10.211 0-20.422 0a1.2 1.2 0 0 0-.829.2" fill="#f6f6f6"/><path d="M123.013 37.393c.128-.082.242-.183.34-.3l7.106-7.1c.147-.169.315-.317.5-.443.092-.056.152-.153.161-.261l.292 1.07.413 1.252c.045.153-.061.236-.152.325l-7 6.977c-.167.164-.308.4-.612.326h.005c0-.042-.033-.064-.06-.088h0c-.039-.038-.024-.11-.084-.135a8.78 8.78 0 0 1-.833-1.478l.048-.036c-.017.011-.032.024-.048.037-.049-.03-.077-.085-.073-.143" class="U"/><path d="M138.35 38.797l.213-.073 2.049.767a3.17 3.17 0 0 1-.564.567q-3.394 3.406-6.8 6.8a1.87 1.87 0 0 1-.664.5 8.66 8.66 0 0 1-1.344-.818c-.022-.061-.094-.045-.13-.087h0c-.025-.023-.045-.054-.083-.059l.006.005c-.023-.06-.1-.042-.131-.084h0c.013-.143.12-.222.21-.312q3.465-3.465 6.931-6.929c.1-.1.209-.186.313-.279" class="K"/><path d="M133.288 23.964a2.49 2.49 0 0 1 .28-.985c6.859.138 13.717.022 20.576.061.247 0 .489-.043.734-.061a2.51 2.51 0 0 1 .28.985c.05.237-.108.308-.289.343a2.79 2.79 0 0 1-.526.02h-20.284c-.164.008-.329.002-.492-.017-.189-.032-.338-.11-.279-.347" fill="#f0f0f0"/><path d="M166.338 35.424c-.217.636-.494 1.25-.827 1.833-.206.189-.359.066-.508-.087l-3.421-3.429-3.722-3.723c-.12-.129-.254-.245-.4-.343-.061-.024-.11-.072-.135-.133s-.025-.129.001-.189a.03.03 0 0 1 .009-.047c.071-.092.005-.212.061-.306l.135-1.1c.011-.106.06-.145.157-.127.354.062.719.028 1.068.122.135.204.293.392.473.558q3.316 3.314 6.629 6.631c.14.139.301.255.478.343" fill="#a72026"/><path d="M142.584 13.217l-1.4.274a4.65 4.65 0 0 1-.643.145c-.174.09-.388.026-.484-.145a3.64 3.64 0 0 0-.452-.488q-3.346-3.346-6.692-6.7c-.157-.157-.433-.293-.26-.605.536-.333 1.101-.618 1.687-.851a1.63 1.63 0 0 1 .434.35q3.671 3.666 7.339 7.339a1.29 1.29 0 0 1 .47.678" class="C"/><path d="M133.646 34.783a.32.32 0 0 1-.127.274c-.224.169-.43.361-.614.573q-3.14 3.132-6.278 6.271c-.113.113-.209.257-.391.276a7.69 7.69 0 0 1-.971-1.2c-.096-.072-.171-.17-.214-.283a1.43 1.43 0 0 1 .492-.707q3.217-3.22 6.438-6.432c.169-.167.28-.414.55-.464l.836 1.31a.59.59 0 0 0 .222.3l-.01-.009c.005.039.031.073.068.087z" class="B"/><path d="M166.338 35.423a.28.28 0 0 1-.386-.062q-3.509-3.524-7.027-7.037c-.112-.112-.3-.215-.167-.432.75.009 1.491.129 2.237.177l1.293.116a.85.85 0 0 1 .343.057c-.245.161-.13.294.022.445l4 4 .455.487a12.61 12.61 0 0 1-.772 2.25" fill="#9d1f25"/><path d="M155.296 24.528c.114.414.161.845.138 1.274.006.054-.013.107-.05.146s-.091.059-.145.054h-.246-21.422-.21c-.285-.019-.352-.08-.354-.362-.031-.209-.008-.423.069-.62a1.18 1.18 0 0 1 .652-.079q10.085 0 20.169 0h.422c.4.029.772.011.977-.413" fill="#fafafa"/><path d="M155.297 24.527c0 .552-.011.562-.578.562q-10.578 0-21.162 0a.91.91 0 0 1-.48-.07c.015-.36.086-.716.21-1.054.004.06.032.115.077.155s.104.058.164.053h.279 20.778l.282-.005c.133-.013.255-.051.291-.206a1.13 1.13 0 0 1 .14.563" fill="#f5f5f5"/><path d="M133.286 29.166c.024-.347.024-.35.361-.352q2.389 0 4.777 0 8.165 0 16.329 0c.159 0 .33-.047.474.069-.027.366-.122.724-.28 1.055-.277-.045-.557-.066-.838-.06h-19.808a4.04 4.04 0 0 0-.8.06c-.108-.246-.18-.506-.212-.773" fill="#f1f1f1"/><path d="M142.585 13.217c-.046-.008-.13-.01-.131-.024-.034-.241-.234-.362-.382-.508q-3.7-3.71-7.4-7.41c-.124-.125-.339-.192-.33-.424.629-.327 1.288-.595 1.967-.8.14.256.32.486.535.683q2.794 2.787 5.578 5.582c.181.182.3.2.437-.009a8.04 8.04 0 0 1 .118 1.107l.13 1.495c.023.268.022.274-.243.3-.093.008-.186.005-.279.008" fill="#da8e2c"/><path d="M163.804 40.132a2.85 2.85 0 0 1-.805-.657l-1.918-1.911-2.1-2.125-2.121-2.1c-.138-.139-.324-.245-.4-.432-.064-.159-.278-.06-.322-.223h0c.042-.037.025-.1.069-.139h0c.041-.038.027-.1.07-.139h0c.042-.039.027-.106.069-.144l.62-1.572q3.734 3.75 7.483 7.485c.153.13.253.312.279.511a9.12 9.12 0 0 1-.93 1.451" fill="#b22228"/><path d="M132.654 5.701c-.015.192.129.292.242.405q1.565 1.567 3.131 3.131 1.913 1.913 3.826 3.825c.146.119.268.264.361.427.066.148.2.145.329.148l-1.9.707c-.308-.252-.582-.542-.863-.822l-6.4-6.4c-.133-.131-.285-.251-.29-.461h0c.074-.006.111-.065.157-.111.444-.323.915-.607 1.407-.849" fill="#de9a2a"/><path d="M142.793 39.914c.121 0 .285-.054.26.161l-.2 1.9c-.191-.1-.275.055-.377.157q-1.317 1.313-2.631 2.63l-3.96 3.982c-.044.038-.091.071-.141.1-.464-.14-.913-.327-1.339-.559-.037-.043-.1-.031-.14-.066s-.1-.036-.144-.068h0c-.034-.052-.1-.041-.145-.069h0c-.1-.2.051-.306.163-.415l7.209-7.178c.047-.035.087-.078.121-.126.288-.6.8-.55 1.32-.45" class="G"/><path d="M154.876 22.98c-.036.154-.157.194-.29.206-.093.007-.187.009-.28.006q-10.005 0-20.011 0a2 2 0 0 1-.589-.073c-.07-.016-.124-.071-.138-.141.047-.272.143-.533.282-.772a1.79 1.79 0 0 1 .587-.082h19.606a1.53 1.53 0 0 1 .552.082c.146.235.242.498.282.772" fill="#ebecec"/><path d="M145.374 40.223c.027-.052-.023-.21.12-.107a8.5 8.5 0 0 1 .9.854l.968.979 1.022 1.019.948.95q.51.51 1.023 1.019l.979.967.972.973 1 1c.185.172.382.331.59.475a11.89 11.89 0 0 1-2.03.789c-.196-.128-.372-.283-.524-.461q-2.473-2.462-4.937-4.932l-.558-.519c-.1.076-.05.255-.186.3-.087-.535-.133-1.077-.138-1.619-.08-.21.02-.437-.06-.647a.29.29 0 0 1-.011-.191c-.078-.213.022-.441-.059-.652a.3.3 0 0 1-.014-.195" fill="#a01f25"/><path d="M153.612 20.377c.23.276.419.585.559.916.079.185-.064.226-.183.265a1.1 1.1 0 0 1-.348.025q-9.409.006-18.818 0c-.106.005-.211-.001-.316-.017-.116-.022-.233-.054-.238-.208a.58.58 0 0 1 .005-.068c.025-.023.043-.05.068-.074a2.38 2.38 0 0 1 .491-.841 1.64 1.64 0 0 1 .587-.082q8.751 0 17.5 0c.233-.003.466.023.693.08" class="V"/><path d="M134.2 31.628a2.65 2.65 0 0 1-.422-.915c0-.2.135-.257.3-.279a3.1 3.1 0 0 1 .422-.014q9.747 0 19.493 0a2.27 2.27 0 0 1 .456.019c.138.028.284.073.22.274-.082.329-.224.639-.42.916-.254.035-.512.037-.767.005q-9.342.006-18.682 0c-.2 0-.4 0-.6-.01" fill="#e7e8e8"/><path d="M153.75 32.538a4.52 4.52 0 0 1-.636.912 2.84 2.84 0 0 1-.763.087q-8.128 0-16.257 0a1.2 1.2 0 0 1-.777-.149 3.16 3.16 0 0 1-.622-.849c0-.2.138-.255.3-.276.152-.014.304-.019.456-.014h17.5a3.9 3.9 0 0 1 .456.013c.169.02.326.066.343.279" class="W"/><path d="M153.75 32.539a.45.45 0 0 0-.348-.139h-.246q-8.975 0-17.95 0c-.177 0-.384-.069-.511.136-.179-.234-.322-.494-.424-.77l-.066-.071c0-.023 0-.046-.005-.069a.26.26 0 0 1 .229-.139h.246 19.014c.2 0 .4-.029.557.144-.115.329-.284.637-.5.91" fill="#e2e3e4"/><path d="M154.666 30.715c-.017-.084-.092-.143-.178-.139h-.28q-9.959 0-19.918 0c-.178 0-.384-.068-.51.138a3.14 3.14 0 0 1-.282-.773c0-.12.046-.205.182-.208h.246 20.536.246c.059-.004.118.015.163.055s.072.095.075.154c-.04.274-.135.537-.28.773" fill="#ececed"/><path d="M132.533 33.094a1.91 1.91 0 0 1-.369.464q-3.26 3.257-6.517 6.517c-.166.129-.303.293-.4.48-.029.079-.122.106-.195.141-.377-.453-.709-.942-.993-1.459.175-.095.334-.218.469-.364q3.379-3.383 6.76-6.759l.531-.5a.65.65 0 0 1 .14.331c.005.04.023.078.052.106.017.011.025.032.018.051.028.051.014.121.071.158v-.005c.031.045.022.111.07.147h0c.034.043.023.11.071.144h0c.034.042.023.108.073.144h0c.034.042.022.11.074.144v-.005c.034.045.02.113.079.144l-.005-.006c.031.046.013.118.08.144z" class="X"/><path d="M122.73 16.27c-.004-.007-.005-.015-.002-.022s.009-.013.016-.015c.242-.176.394.006.54.149l2.459 2.448 5.01 5a.68.68 0 0 1 .22.722c-.065.965.029.772-.815.715-.281.005-.561-.029-.833-.1.084-.234-.1-.339-.231-.465q-3.2-3.205-6.408-6.408l-.586-.594c.1-.343.24-.672.418-.982.056-.038.045-.108.073-.159-.006-.02.002-.041.019-.052.015-.028.048-.047.051-.084l-.01.014c.068-.038.056-.112.079-.171" class="L"/><path d="M142.859 10.31l-.01.315c0 .057 0 .125-.069.147s-.108-.029-.149-.069l-.175-.172-5.874-5.872-.284-.31c-.122-.11-.068-.2.011-.294a12.71 12.71 0 0 1 2.321-.685c.247.212.479.442.693.687q1.428 1.412 2.844 2.839c.116.116.223.254.409.112a3.54 3.54 0 0 1 .093.866l.189 2.437" fill="#d7872e"/><path d="M124.239 13.562a.34.34 0 0 1 .385.092l.223.223 6.646 6.642c.161.18.338.345.529.492l-.613 1.628c-.118.008-.234-.038-.315-.125-.146-.118-.285-.243-.417-.376q-3.432-3.425-6.857-6.855c-.147-.145-.33-.276-.3-.525a1.8 1.8 0 0 1 .288-.5.45.45 0 0 0 .056-.083c-.004-.024.007-.047.027-.06.011-.025.027-.047.048-.065.031-.026.052-.061.061-.1a.04.04 0 0 1 .02-.037l.054-.074-.005.005c.048-.029.031-.1.08-.131v-.005a.48.48 0 0 0 .059-.088c-.003-.022.008-.044.028-.055" fill="#de992a"/><path d="M155.368 28.042c.007-.053-.008-.106-.042-.147s-.084-.065-.138-.066a3.97 3.97 0 0 0-.59-.071q-10.46.006-20.919 0c-.24 0-.511-.046-.6.28a1.83 1.83 0 0 1-.061-.826c0-.094.069-.139.149-.173a1.04 1.04 0 0 1 .414-.056h21.362c.071-.004.141-.004.212 0 .248.032.31.1.287.364-.019.229.066.469-.07.685" fill="#fbfbfb"/><path d="M128.985 27.891l.455.013c.045 0 .1 0 .117.054.013.046-.004.096-.043.124l-.385.357q-3.324 3.322-6.646 6.642c-.115.113-.212.255-.389.285h0c-.024-.05-.018-.111-.061-.153-.242-.519-.43-1.06-.562-1.617.01-.307.162-.592.412-.771q2.183-2.186 4.368-4.373c.1-.1.255-.177.27-.35.534-.086 1.073-.132 1.613-.137.234-.079.485.027.72-.064l.129-.01" fill="#4b7c35"/><path d="M134.268 21.362c.131.112.291.071.438.071q3.18 0 6.359 0h12.612.316c.085.007.162-.052.178-.136a2.4 2.4 0 0 1 .354.771c.042.038.023.106.069.143-.133.111-.29.069-.44.069q-3.918 0-7.836 0h-11.772l-.525.02c-.071.01-.141-.027-.172-.092.046-.037.027-.1.07-.143.074-.252.192-.489.349-.7" fill="#e6e7e8"/><path d="M142.794 39.913a1.5 1.5 0 0 1-.454 0c-.292-.094-.419.07-.536.276-.07.108-.155.206-.252.291q-3.5 3.5-7 7c-.195.2-.473.315-.572.6-.345-.127-.674-.295-.98-.5-.031-.05-.1-.034-.135-.074h0c-.032-.045-.1-.027-.131-.071h-.008c-.025-.031-.061-.051-.1-.057h-.023l-.015-.019c.003-.059.03-.114.075-.153.346-.279.669-.585.965-.916q3.266-3.257 6.527-6.521c.13-.13.245-.291.461-.283l2.181.424" class="M"/><path d="M122.1 17.709c.205-.014.313.136.436.259l6.038 6.036.869.872c.061.062.176.116.133.223s-.166.052-.251.078l-2.436-.219c-.168-.105-.322-.231-.457-.376l-4.747-4.718c-.103-.109-.175-.244-.208-.391.113-.485.277-.956.487-1.407.047-.046.039-.112.064-.167-.007-.017-.001-.037.015-.046.037-.041.027-.1.06-.144z" class="Y"/><path d="M154.652 18.14l.257-.287q3.312-3.314 6.627-6.625l.124-.124c.292-.271.307-.273.627-.033.02.012.042.021.065.027a6.18 6.18 0 0 1 .846 1.055 1.8 1.8 0 0 0-.608.455q-3.159 3.161-6.325 6.318a1.3 1.3 0 0 1-.7.494q-.38-.541-.758-1.08c-.06-.061-.083-.15-.152-.205z" fill="#71addb"/><path d="M157.896 7.033c.36.21.695.459 1 .742.234.18.2.367.018.562l-.218.228q-3.2 3.2-6.414 6.4c-.176.173-.3.469-.633.423l-1.422-.835c.005-.1.084-.161.149-.227q3.488-3.484 6.976-6.968c.153-.153.284-.357.549-.326" fill="#6eaad8"/><path d="M157.896 7.028l-.364.326q-3.375 3.371-6.748 6.741c-.171.171-.3.391-.562.454l-1.261-.561h0a.27.27 0 0 1-.209-.074c.123-.212.285-.399.478-.55q3.455-3.465 6.918-6.92a.69.69 0 0 1 .433-.275c.466.243.907.531 1.317.86" fill="#67a3d2"/><path d="M135.747 48.845c-.015-.175.1-.275.21-.384l1.961-1.958 4.588-4.587c.081-.098.178-.183.285-.252.09.1.039.213.065.31-.011.759-.118 1.512-.183 2.268.003.28-.031.56-.1.831-.124-.157-.213-.246-.413-.039l-4.2 4.243c-.092.087-.2.155-.319.2-.652-.151-1.288-.364-1.9-.635" class="Z"/><path d="M123.516 14.759l.377.413q3 3 6 6l1.51 1.463v-.006c-.111.073-.009.208-.083.292q-.176.814-.349 1.628a.65.65 0 0 0-.233-.552l-2.853-2.848-2.693-2.662-2.073-2.1a.51.51 0 0 0-.377-.155c.21-.515.469-1.008.772-1.474" class="C"/><path d="M164.097 13.418c.273.349.507.727.7 1.126-.73.623-1.384 1.325-2.062 2q-2.59 2.58-5.172 5.168c-.184.212-.41.384-.663.506l-.547-1.348a.35.35 0 0 1 .078-.415 4.07 4.07 0 0 1 .31-.335q3.266-3.266 6.532-6.529a2.75 2.75 0 0 1 .336-.308c.1-.074.2-.175.344-.078h0l.06.078.005.008c.048.029.032.1.083.129" fill="#67a2d1"/><path d="M152.131 18.555c.275.216.511.476.7.77.024.022.046.048.069.071h0l.066.068c.005.021.009.043.011.065-.018.19-.164.205-.306.219-.163.015-.327.01-.491.01h-15.866c-.187.011-.375.005-.561-.02-.176-.034-.316-.116-.215-.339.221-.313.482-.596.776-.842q7.908-.044 15.817 0" class="N"/><path d="M135.539 19.4c0 .1.029.19.15.2.093.008.186.006.28.006q8.289 0 16.578 0c.148 0 .307.041.437-.075.224.203.412.444.554.711.046.034.025.1.073.139h0c-.037.091-.14.135-.232.1-.172-.035-.349-.044-.524-.028q-8.776 0-17.551 0c-.159 0-.33.047-.474-.07h0c.046-.034.025-.1.073-.138.188-.297.399-.579.633-.842" fill="#dddede"/><path d="M163.953 13.2a1.48 1.48 0 0 0-.466.361q-3.387 3.383-6.769 6.769c-.152.153-.348.285-.364.535q-.394-.726-.789-1.451c.127-.236.377-.341.558-.522q3.262-3.282 6.54-6.546c.053-.046.103-.096.148-.15.113-.161.245-.138.387-.048a5.91 5.91 0 0 1 .756 1.054" class="a"/><path d="M164.734 38.681c-2.39-2.493-4.876-4.891-7.3-7.348-.041-.041-.078-.1-.129-.118a.55.55 0 0 1-.329-.529q.178-.667.357-1.331c.014.057.025.122.082.149a5.37 5.37 0 0 1 1.2 1.089c.52.5 1.021 1.013 1.529 1.52l1.552 1.546 1.547 1.549 1.548 1.549a2.17 2.17 0 0 1 .38.406c.08.139.217.111.345.094a7.45 7.45 0 0 1-.722 1.329c-.023.027-.059.047-.055.09z" fill="#ae2127"/><path d="M151.645 15.387c.2-.073.292-.265.432-.4l1.988-1.983 4.569-4.568.2-.2c.073-.051.122-.13.132-.219s-.017-.177-.075-.244c.403.273.779.586 1.12.933l.069.215a40.9 40.9 0 0 1-2.954 3.052l-3.838 3.844c-.12.121-.3.217-.182.452-.177 0-.26-.205-.415-.1l-1.047-.776" fill="#72aedc"/><path d="M156.578 6.171l-.307.335-6.889 6.888c-.11.104-.215.215-.312.331-.077.104-.193.173-.321.191l-1.4-.423a1.5 1.5 0 0 1 .485-.631q3.476-3.482 6.961-6.957c.154-.159.3-.326.436-.5a7.37 7.37 0 0 1 1.265.708c.028.018.045.051.079.06z" fill="#639ecd"/><path d="M135.313 33.382h12.438q2.477 0 4.954 0c.138 0 .284-.037.405.066h0l-.068.071c-.025.023-.048.048-.069.075-.182.3-.42.562-.7.773l-7.338.005-8.463.005c-.106 0-.21-.017-.316-.01-.277-.215-.514-.478-.7-.776l-.069-.073h0l-.066-.068-.008-.068" class="b"/><path d="M155.229 5.407c.07.097.053.232-.04.308q-2.223 2.2-4.433 4.408-1.418 1.412-2.832 2.831a2.19 2.19 0 0 0-.375.415c-.043.071-.118.116-.2.124l-1.492-.273c.187-.308.419-.587.688-.828q3.507-3.509 7.018-7.014a3.66 3.66 0 0 0 .475-.556c.417.153.817.348 1.193.584" fill="#5c97c7"/><path d="M136.166 34.373c.009-.059.056-.105.115-.112.149-.029.302-.04.454-.033h15.038c.18 0 .383-.06.51.144h-.005a.24.24 0 0 0-.07.078 3.23 3.23 0 0 1-.837.77c-4.552.172-9.106.027-13.659.078a2.49 2.49 0 0 0-.559-.01 3.7 3.7 0 0 1-.914-.84c-.019-.029-.043-.054-.071-.075z" class="H"/><path d="M165.415 15.668a4.36 4.36 0 0 1 .438.908 2.2 2.2 0 0 1-.521.746q-3.557 3.553-7.111 7.107c-.246.212-.476.441-.688.687q-.138-.814-.276-1.63c-.037-.164.074-.255.173-.352l7.468-7.44c.11-.108.187-.284.394-.246h-.005a.39.39 0 0 0 .055.08c.015.01.022.029.017.046a.2.2 0 0 0 .055.094" fill="#5c98c8"/><path d="M165.293 15.445l-.452.488q-3.511 3.515-7.02 7.028c-.181.181-.423.3-.561.521a7.46 7.46 0 0 1-.284-1.036c-.047-.071.013-.177-.075-.237v.009a.46.46 0 0 1 .076-.154c.832-.725 1.575-1.538 2.356-2.313q2.46-2.439 4.9-4.894a.78.78 0 0 1 .564-.315c.204.278.372.58.5.9" class="c"/><path d="M152.128 18.554c-.012.072-.072.126-.145.13l-.28.008q-7.457 0-14.914 0c-.168 0-.361.059-.478-.134v-.005a.4.4 0 0 1 .066-.065v-.005a.4.4 0 0 1 .066-.065c.279-.287.586-.547.915-.776a4.63 4.63 0 0 0 .84.056q6.248 0 12.5 0a.76.76 0 0 0 .376-.059 6.3 6.3 0 0 1 .985.846l.068.068z" class="D"/><path d="M151.078 17.639c-.006.108-.092.194-.2.2l-.21.006h-12.776c-.2.034-.403-.047-.525-.209h0l.066-.064c.02-.006.04-.009.061-.01.031-.018.058-.043.08-.071a4.87 4.87 0 0 1 1.2-.77c.278.033.56.028.837-.014l9.482.005a.72.72 0 0 0 .443-.065 5.72 5.72 0 0 1 1.263.777c.023.024.048.047.074.069h0c.033.046.1.028.134.076h.005a.86.86 0 0 1 .066.07z" class="O"/><path d="M137.152 35.285c.016-.084.091-.144.177-.14h.316 12.833a1.93 1.93 0 0 0 .628-.042c.106-.035.221.017.264.12h-.005c-.029.018-.055.042-.074.071h0c-.027.02-.052.043-.074.069h0l-.073.066a4.56 4.56 0 0 1-1.046.71 5.87 5.87 0 0 1-1.223.079q-4.83 0-9.658 0a5.58 5.58 0 0 0-.8-.02c-.403-.216-.781-.475-1.128-.772-.024-.02-.047-.043-.07-.066s-.045-.048-.071-.069z" class="d"/><path d="M154.035 4.823c.059.1.127.157 0 .285q-3.809 3.782-7.6 7.58a2.52 2.52 0 0 0-.223.269c-.078.133-.206.228-.355.264-.524-.006-.5 0-.424-.5a3.14 3.14 0 0 1 .084-.715 6.22 6.22 0 0 1 .685-.744l6.646-6.617c.12-.118.015-.205.062-.294a5.45 5.45 0 0 1 1.128.475" fill="#5792c3"/><path d="M121.476 19.467l5.077 5.042a1.26 1.26 0 0 1 .335.443l-.285-.015c-.14-.06-.3.017-.437-.052a22.1 22.1 0 0 1-2.32-.206c.042-.126-.076-.157-.135-.214L121 21.796c-.04-.042-.07-.093-.087-.149a10.95 10.95 0 0 1 .5-1.971.81.81 0 0 0 .054-.166c-.005-.007-.006-.015-.004-.023s.008-.015.015-.019" class="e"/><path d="M126.522 28.1c.062.032.236-.017.116.149-.06.072-.125.138-.195.2q-2.175 2.175-4.351 4.346a3.13 3.13 0 0 0-.619.8c-.292-.821-.503-1.668-.629-2.53a1.02 1.02 0 0 0 .469-.288l1.915-1.909c.2-.195.246-.33-.01-.488.272-.065.551-.095.831-.089l2.474-.19" class="f"/><path d="M167.11 33.174c-.124.065-.194-.019-.269-.094q-1.347-1.363-2.7-2.724l-1.535-1.52a2.16 2.16 0 0 0-.392-.392.1.1 0 0 1-.046-.121c.017-.056.068-.061.113-.064l.349-.017c.018-.015.033-.014.046.005.241.1.5-.014.744.071a22.31 22.31 0 0 1 2.367.209c-.082.168-.269.111-.424.2.2.237.419.438.631.649l1.419 1.4a.53.53 0 0 1 .186.358 11.09 11.09 0 0 1-.491 2.04" class="P"/><path d="M145.655 43.523v-.614c.265.188.511.402.735.638q1.754 1.753 3.506 3.508l1.83 1.826c.068.068.189.118.135.256h0c-.046.027-.1.019-.147.054a6.43 6.43 0 0 1-1.126.347c-.303-.089-.574-.262-.781-.5l-3.495-3.494c-.153-.153-.282-.349-.52-.4a11.47 11.47 0 0 1-.136-1.619" fill="#991e24"/><path d="M166.34 17.708a2.8 2.8 0 0 1 .292.771 3.1 3.1 0 0 1-.543.685q-2.857 2.851-5.708 5.709c-.1.1-.238.153-.289.3a2.86 2.86 0 0 1-.833.069c-.19.073-.395-.019-.584.056l-.143.008c-.145-.083-.1-.191-.036-.3.082-.114.177-.219.282-.312q3.52-3.522 7.05-7.038c.1-.1.187-.386.432-.158a.05.05 0 0 1 .015.052c.028.051.018.116.065.159" fill="#548fc1"/><path d="M152.907 4.348c.167.218.169.219-.018.406q-3.562 3.564-7.128 7.12c-.062.062-.1.205-.247.125.008-.536.057-1.071.145-1.6a2.19 2.19 0 0 0 .391-.4q2.819-2.811 5.634-5.628c.111-.152.272-.262.454-.31a2.77 2.77 0 0 1 .771.287" fill="#528dbf"/><path d="M166.259 17.497c-.053-.027-.118-.012-.153.036q-3.689 3.7-7.38 7.4c-.1.1-.282.166-.194.367-.238.057-.483.083-.728.078-.241.013-.241.006-.269-.268a.43.43 0 0 1 .265-.479c.09-.054.169-.125.234-.208l7.282-7.277a1.28 1.28 0 0 0 .3-.386c.038-.101.129-.173.236-.186h0c.032.045.022.11.07.147h0c.036.042.025.106.068.144a2.3 2.3 0 0 1 .273.632" class="g"/><path d="M160.091 25.172c-.03-.02-.049-.052-.051-.088s.014-.07.042-.093l.22-.227q2.892-2.892 5.784-5.792c.151-.112.269-.263.341-.436.031-.11.122-.085.2-.061.185.405.324.829.414 1.264a1.44 1.44 0 0 1-.326.406q-2.3 2.3-4.594 4.594c-.089.076-.163.168-.218.271a14.7 14.7 0 0 1-1.816.153" class="Q"/><path d="M142.577 7.007c-.028.107.05.266-.08.313s-.191-.107-.27-.185q-1.684-1.678-3.364-3.36c-.115-.115-.25-.217-.232-.408a13.1 13.1 0 0 1 1.989-.413l1.291-.157c.335-.034.336-.027.366.322l.131 1.575.169 2.311" fill="#d47c30"/><path d="M152.138 4.062c-.067.11-.152.208-.251.29q-2.93 2.928-5.861 5.855c-.1.1-.167.279-.367.191 0-.047.006-.094.009-.141.078-.191-.014-.4.057-.589.005-.517.05-1.033.136-1.543.231.285.233.287.513 0l4.323-4.355a.94.94 0 0 1 .169-.122c.437.089.863.227 1.27.41" fill="#4d88ba"/><path d="M137.647 49.478a5.71 5.71 0 0 1 .685-.793q1.925-1.915 3.845-3.836c.094-.094.18-.282.317-.229s.048.251.076.381c.004.023.007.047.008.07-.031.777-.101 1.553-.21 2.323-.124-.205-.227-.158-.377-.005l-2.172 2.181a1.2 1.2 0 0 1-.484.329c-.409-.051-.811-.146-1.2-.283-.061-.059-.154-.006-.217-.061h-.034l-.031-.017c-.052-.024-.107-.042-.164-.052l-.025.005z" class="f"/><path d="M138.422 36.19c.014-.072.075-.125.148-.127l.28-.006q5.407 0 10.812 0c.149 0 .307-.04.438.073h0c-.031.015-.048.046-.075.065h0c-.034.045-.1.029-.136.073h0c-.022.022-.045.042-.069.061a8.46 8.46 0 0 1-1.547.714 2.09 2.09 0 0 0-.7.009q-3.333 0-6.665 0c-.241-.047-.488-.05-.73-.01-.57-.188-1.113-.449-1.617-.775a.38.38 0 0 0-.083-.066c-.019.001-.038-.003-.056-.01" fill="#cbcccd"/><path d="M149.533 16.65l.124.215h-10.513c-.1 0-.21 0-.315-.008-.083-.009-.071-.075-.059-.134.038-.041.1-.027.14-.073h0c.041-.038.107-.027.141-.075.455-.286.951-.499 1.472-.631.348-.006.696-.031 1.042-.076q2.672 0 5.344 0a2.6 2.6 0 0 0 .8.005c.614.156 1.204.397 1.752.716l.073.061z" class="E"/><path d="M145.792 45.143a.2.2 0 0 1 .331 0l1.754 1.777 1.825 1.807c.223.265.489.491.787.668a.2.2 0 0 1 .1.139c-.596.192-1.207.335-1.827.427-.7-.831-1.507-1.549-2.262-2.324-.26-.266-.266-.26-.489.027a10.72 10.72 0 0 1-.14-1.665c-.073-.194.017-.4-.057-.6a.52.52 0 0 1-.019-.261" class="P"/><path d="M150.868 3.653c-.031.162-.117.309-.242.417q-2.188 2.184-4.373 4.37l-.1.1c-.052.048-.111.1-.186.076-.1-.032-.085-.127-.09-.208l-.013-.28a2.9 2.9 0 0 1 .075-.819l3.317-3.357.559-.578a4.52 4.52 0 0 1 1.054.282" fill="#4781b5"/><path d="M161.91 25.016c.013-.065-.214-.01-.054-.175l4.9-4.916a.49.49 0 0 1 .289-.183h0c.057.061 0 .157.066.215.014.01.018.03.01.045a.78.78 0 0 0 .052.166c.081.178.13.368.145.563-.166.054-.252.2-.366.313q-1.712 1.7-3.415 3.41c-.119.118-.29.226-.139.433a2.84 2.84 0 0 1-.836.069c-.19.074-.395-.019-.585.057h-.071" fill="#4983b7"/><path d="M120.913 21.645c.2.066.378.184.519.34q1.084 1.1 2.18 2.18a2.77 2.77 0 0 0 .471.487l-.238.025-.025.008-.024-.013c-.058-.053-.146-.058-.21-.013l-.147-.002c-.12-.05-.254.009-.373-.048-.8-.014-1.582-.129-2.374-.191-.138-.011-.215-.057-.195-.215.08-.86.22-1.713.417-2.553" fill="#d37a30"/><path d="M140.178 37.038c-.013-.059-.024-.125.059-.134.093-.008.187-.01.28-.008q3.639 0 7.277 0c.168 0 .361-.054.474.14h0c-.039.04-.1.025-.14.064-.021.006-.043.009-.065.009-.042.037-.107.022-.148.065-.79.286-1.611.477-2.446.57a10.03 10.03 0 0 1-1.748.057 10.13 10.13 0 0 1-2.98-.557c-.039-.043-.1-.028-.148-.064a.22.22 0 0 1-.064-.009c-.039-.041-.1-.024-.145-.062a.3.3 0 0 1-.066-.009c-.039-.034-.102-.02-.14-.062z" fill="#c6c7c9"/><path d="M139.336 49.902l.205-.237q1.263-1.267 2.53-2.528c.07-.071.125-.171.259-.185a2.52 2.52 0 0 1 .039.445c-.013.771-.13 1.531-.181 2.3l-.037.384c-.023.254-.024.266-.26.24a17.86 17.86 0 0 1-2.278-.353c-.066-.048-.154-.005-.219-.055l-.032.006z" fill="#426c32"/><path d="M123.217 28.38l.279.015c.068 0 .15-.013.181.07a.19.19 0 0 1-.062.19l-.586.6q-.925.923-1.851 1.842c-.154.154-.152.157-.334-.031a12.32 12.32 0 0 1-.282-1.693l-.068-.594c-.018-.134.032-.192.167-.2l.91-.079 1.646-.117" fill="#426c31"/><path d="M146.011 47.668c0-.047 0-.094.008-.14.015-.1-.052-.241.055-.289a.32.32 0 0 1 .337.121q.581.579 1.157 1.163l.986.986a.55.55 0 0 1 .2.459l-.124.017c-.07.043-.157.006-.227.052a18.93 18.93 0 0 1-2 .289c-.154.019-.206-.043-.214-.186l-.112-1.669c-.075-.2.015-.408-.06-.6a.3.3 0 0 1-.013-.2" fill="#8b1c22"/><path d="M163.399 24.887c-.106-.031-.268.048-.312-.084s.11-.191.189-.27q1.829-1.833 3.663-3.663c.1-.1.194-.256.38-.139l.015.066a.54.54 0 0 0 .053.214c.082.202.13.416.141.633a3.66 3.66 0 0 0-.824.7l-2.465 2.473a3 3 0 0 1-.84.073" fill="#457fb3"/><path d="M149.813 3.371a.2.2 0 0 1-.05.254q-.478.476-.957.953l-1.537 1.548-1.137 1.121c-.056.046-.128.067-.2.059l.014-.213c.075-.187-.019-.391.057-.578a2.4 2.4 0 0 1 .07-.768c.22.036.341-.122.473-.252l1.911-1.906a.82.82 0 0 1 .385-.291c.02-.004.042-.004.062 0s.018 0-.014-.017c-.055-.024-.1-.052-.068-.125.336.028.668.1.985.214" fill="#437db2"/><path d="M167.601 31.138l-1.152-1.12-1.213-1.213c-.055-.056-.149-.106-.115-.2s.139-.071.214-.057a2.43 2.43 0 0 0 .452-.018c.677 0 1.344.121 2.018.153.154.008.158.106.144.218l-.168 1.315a4.64 4.64 0 0 1-.181.921" fill="#891c22"/><path d="M164.239 24.815c-.025-.016-.042-.041-.047-.071s.002-.059.02-.082c.044-.054.091-.106.141-.154q1.347-1.347 2.7-2.693c.13-.129.259-.288.48-.171.108.366.177.743.206 1.124-.693.53-1.322 1.138-1.874 1.813-.024.029-.024.071 0 .1-.271.064-.549.087-.827.068-.168.068-.352-.013-.521.054l-.273.017" class="h"/><path d="M147.71 15.874c-.1.177-.278.145-.438.145h-3.193-2.737c-.187-.018-.375-.004-.557.041-.105.037-.22-.014-.262-.117h0c.041-.036.1-.023.143-.062.021-.007.042-.009.064-.008.042-.037.107-.022.148-.062.021-.006.043-.009.065-.008.061-.06.158 0 .217-.069h0c.057-.064.152-.006.21-.066.022-.005.044-.007.066-.006.061-.06.154-.005.215-.064a8.17 8.17 0 0 1 1.937-.285c.994-.056 1.991.016 2.966.214.079.018.155.047.233.071.061.06.155.005.217.064.022-.002.044 0 .065.006.059.061.154 0 .213.065a.2.2 0 0 1 .069.008c.042.038.1.024.147.06.022 0 .043.003.064.008.04.041.1.028.144.064z" fill="#c6c7c8"/><path d="M148.968 3.3a1.27 1.27 0 0 0-.288.254q-1.051 1.049-2.1 2.1a1.72 1.72 0 0 1-.261.231c-.139.094-.166.074-.237-.138 0-.066.008-.133.013-.2.078-.187-.018-.392.057-.581-.017-.259.006-.519.069-.77.09.034.094.125.124.192l1.189-1.168c.135-.127.032-.187.033-.278a5.41 5.41 0 0 1 1.266.214l.135.144z" fill="#3e78ac"/><path d="M165.86 24.677l-.212-.027a16.82 16.82 0 0 1 1.582-1.684c.098-.1.209-.187.33-.259.088-.055.122.025.176.061l.014.124c.066.116-.011.254.059.368.068.343.116.689.143 1.037.024.153-.017.233-.2.243a10.2 10.2 0 0 1-1.045.064c-.166.069-.347-.013-.512.054-.111.025-.226.031-.339.019" fill="#3b75aa"/><path d="M147.558 2.943c.043.082.152.051.217.13-.47.561-.976 1.09-1.514 1.586-.035-.152-.05-.307-.047-.463-.02-.41.069-.813.082-1.221.005-.129.055-.191.192-.181a6.06 6.06 0 0 1 1.07.148" fill="#3973a8"/><path d="M163.422 28.318c-.248-.017-.507.073-.744-.07.25-.02.502.003.744.07" fill="#9d1f25"/><path d="M128.856 27.903c-.231.135-.479.048-.72.062.235-.063.478-.084.72-.062" class="G"/><g class="S"><path d="M145.458 41.258c.118.206.048.431.059.647-.06-.21-.08-.43-.059-.647m-.072-.843c.124.208.048.434.059.652a1.79 1.79 0 0 1-.059-.652"/></g><path d="M146.021 47.864c.12.191.046.4.06.6-.064-.193-.085-.398-.06-.6" class="P"/><path d="M145.809 45.404c.118.19.048.4.057.6a1.48 1.48 0 0 1-.057-.6" fill="#991e24"/><path d="M146.149 4.969c-.008.195.061.4-.057.581a1.36 1.36 0 0 1 .057-.581" fill="#437db2"/><path d="M146.009 6.515c-.01.194.059.395-.057.578a1.39 1.39 0 0 1 .057-.578" fill="#4781b5"/><path d="M145.726 9.669c-.006.2.061.4-.057.589-.024-.198-.005-.399.057-.589" fill="#528dbf"/><path d="M158.674 25.295c.185-.116.389-.05.584-.056a1.37 1.37 0 0 1-.584.056" class="g"/><path d="M161.979 25.013c.183-.115.387-.051.584-.056a1.37 1.37 0 0 1-.584.056" class="Q"/><path d="M166.198 24.657c.162-.106.34-.052.512-.052-.165.056-.34.074-.512.052" class="h"/><path d="M164.511 24.799c.164-.108.345-.048.52-.054-.167.059-.345.077-.52.054" fill="#457fb3"/><path d="M133.594 34.708c-.139-.03-.234-.158-.222-.3a.79.79 0 0 1 .222.3" class="R"/><path d="M126.166 24.884c.148 0 .3-.043.437.052a.88.88 0 0 1-.437-.052" class="Y"/><path d="M129.42 7.87c-.019.134-.088.208-.232.192a.47.47 0 0 1 .232-.192" fill="#e2a628"/><path d="M131.031 28.814c-.093-.108-.061-.237-.06-.361a.61.61 0 0 1 .06.361" class="U"/><path d="M167.808 23.261c-.094-.111-.061-.242-.059-.368.059.113.079.242.059.368" class="h"/><path d="M123.065 24.606c.126-.027.258-.01.373.048a.68.68 0 0 1-.373-.048" class="e"/><path d="M167.387 21.011c-.056-.061-.131-.118-.055-.214.051.059.071.138.055.214" fill="#4983b7"/><path d="M157.399 29.001c.005.107.025.218-.061.306-.017-.106.004-.215.061-.306" fill="#ae2127"/><path d="M131.104 29.236a.36.36 0 0 1-.06-.308c.057.092.078.201.06.308" class="U"/><path d="M131.323 22.925c0-.106-.024-.218.083-.293a.46.46 0 0 1-.083.293" fill="#de992a"/><path d="M154.654 18.134c.089.029.15.111.152.205-.077-.044-.133-.118-.152-.205" fill="#76b2df"/><path d="M123.589 24.66c.025-.034.066-.053.109-.05s.08.026.101.063l-.21-.013" class="e"/><path d="M139.39 49.91c.077-.017.159.003.219.054a.26.26 0 0 1-.219-.054" class="f"/><path d="M137.92 49.557a.24.24 0 0 1 .217.061.25.25 0 0 1-.217-.061" class="Z"/><path d="M147.005 15.667c-.078.014-.158-.01-.215-.064.078-.012.157.012.215.064" class="E"/><path d="M167.11 19.957c-.056-.056-.081-.137-.065-.215a.26.26 0 0 1 .065.215" class="Q"/><path d="M131.248 6.548c-.005.036-.024.069-.054.09s-.067.029-.103.022c.034-.058.091-.099.157-.112" class="T"/><g fill="#b52228"><path d="M148.052 39.418a.26.26 0 0 1-.247.073c.069-.058.158-.084.247-.073"/><path d="M148.263 39.353c-.055.061-.139.088-.219.069.058-.057.139-.082.219-.069"/></g><path d="M141.653 15.604c-.058.053-.137.077-.214.064.058-.053.137-.077.214-.064" class="E"/><path d="M148.409 50.033c.064-.051.148-.07.227-.051-.064.05-.148.069-.227.051" class="P"/><g class="E"><path d="M141.37 15.673c-.056.053-.134.078-.21.065a.25.25 0 0 1 .21-.065m5.914.065a.25.25 0 0 1-.213-.065.26.26 0 0 1 .213.065"/><path d="M141.163 15.74a.24.24 0 0 1-.217.068c.059-.053.138-.078.217-.068"/></g><path d="M156.901 22.21a.23.23 0 0 1 .075.237c-.055-.066-.082-.151-.075-.237" fill="#67a2d1"/><path d="M138.911 16.651c-.032.045-.084.072-.14.073.033-.044.085-.071.14-.073" class="O"/><path d="M149.883 36.268c.032-.044.082-.071.136-.073-.032.044-.082.071-.136.073" class="d"/><g fill="#5c98c8"><path d="M165.987 16.865c-.044-.035-.069-.088-.068-.144.046.033.072.087.068.144"/><path d="M165.92 16.724c-.048-.033-.074-.089-.07-.147.048.033.074.089.07.147"/></g><path d="M139.051 16.577a.17.17 0 0 1-.141.075.2.2 0 0 1 .141-.075" class="O"/><path d="M122.591 16.564c.006.062-.022.123-.073.159a.2.2 0 0 1 .073-.159" class="C"/><path d="M122.027 17.894c.008.063-.017.125-.065.166-.007-.063.018-.124.065-.166" class="L"/><path d="M122.73 16.27c.009.067-.022.133-.079.169a.22.22 0 0 1 .079-.169" class="C"/><path d="M137.692 49.49a.2.2 0 0 1 .164.052c-.06.014-.123-.006-.164-.052" class="Z"/><path d="M151.714 49.191c.038-.041.092-.061.147-.055a.14.14 0 0 1-.147.055" fill="#a01f25"/><g class="B"><path d="M132.105 32.256a.17.17 0 0 1-.073-.158c.049.037.077.096.073.158"/><path d="M132.167 32.398c-.047-.033-.074-.089-.07-.147.049.032.076.089.07.147"/></g><path d="M156.352 32.256c0 .056-.025.109-.069.144-.006-.057.021-.113.069-.144" class="J"/><path d="M132.235 32.538c-.047-.032-.074-.087-.071-.144.048.032.075.087.071.144" class="B"/><path d="M140.669 15.885a.18.18 0 0 1-.143.062c.035-.042.088-.065.143-.062" class="E"/><path d="M156.283 32.402c-.001.055-.027.106-.07.139-.004-.056.023-.109.07-.139" class="J"/><path d="M132.309 32.678c-.048-.032-.075-.087-.073-.144.049.031.077.086.073.144" class="B"/><path d="M156.211 32.542c-.001.055-.027.106-.07.14-.004-.056.023-.11.07-.14" class="J"/><path d="M132.38 32.818c-.048-.032-.076-.086-.074-.144.049.031.077.086.074.144" class="B"/><g class="E"><path d="M147.707 15.878c-.055.002-.108-.022-.144-.064.056-.003.109.021.144.064m-6.829-.063c-.037.042-.092.065-.148.062a.19.19 0 0 1 .148-.062"/><path d="M147.503 15.807c-.056.003-.11-.019-.147-.061.056-.002.109.02.147.061"/></g><path d="M134.268 48.22a.16.16 0 0 1 .14.066c-.055.007-.11-.019-.14-.066" class="M"/><path d="M132.457 32.96c-.051-.029-.081-.085-.078-.144.05.031.079.086.078.144" class="B"/><path d="M134.124 48.152c.056-.005.111.021.143.068-.057.008-.113-.019-.143-.068" class="M"/><path d="M132.53 33.096c-.055-.026-.087-.085-.079-.145.05.031.08.086.079.145" class="B"/><path d="M136.266 15.755l-.029-.042c.029-.031.05 0 .07.015-.005.018-.022.03-.041.027" class="T"/><path d="M133.982 48.083c.057-.006.114.02.145.069a.15.15 0 0 1-.145-.069" class="M"/><path d="M122.102 17.703c.003.055-.02.108-.061.145-.007-.056.016-.111.061-.145" class="L"/><g class="K"><path d="M132.866 47.515c.055-.001.107.027.135.074-.055.003-.107-.026-.135-.074m-.135-.072c.053 0 .102.027.131.071-.054.003-.104-.024-.131-.071"/></g><path d="M167.173 20.168a.19.19 0 0 1-.052-.166c.044.043.063.105.052.166" class="Q"/><path d="M131.108 46.459c.057 0 .108.035.13.087-.055-.005-.104-.038-.13-.087" class="I"/><path d="M151.002 17.57c-.054-.004-.103-.032-.134-.076.054.003.104.031.134.076" class="D"/><path d="M130.898 46.319c.056.001.107.033.131.084-.056-.002-.106-.034-.131-.084" class="I"/><path d="M166.339 17.708c-.047-.038-.072-.098-.065-.159.046.039.071.099.065.159" class="g"/><path d="M121.465 19.509a.2.2 0 0 1-.054.166c-.011-.061.009-.123.054-.166" class="Y"/><path d="M154.949 34.587c-.005.056-.04.104-.092.125.008-.054.043-.101.092-.125" fill="#c2242a"/><g fill="#ebecec"><path d="M133.919 22.066c-.001.056-.026.108-.07.143.002-.056.027-.108.07-.143m20.676.142c-.044-.034-.07-.087-.069-.143.042.036.067.088.069.143"/></g><path d="M153.613 20.379c-.045-.032-.072-.084-.073-.139a.19.19 0 0 1 .073.139" class="V"/><path d="M123.919 39.013c.051.026.084.079.084.136-.049-.029-.08-.08-.084-.136" class="X"/><path d="M122.034 35.212c.046.036.069.094.061.152-.047-.035-.071-.094-.061-.152" class="G"/><path d="M164.097 13.419c-.048-.026-.079-.075-.083-.129.045.029.076.076.083.129" class="a"/><path d="M134.909 20.243c-.003.054-.03.103-.073.136.002-.054.029-.104.073-.136" class="V"/><path d="M124.149 13.71c-.006.053-.035.102-.08.131.003-.054.033-.104.08-.131" class="F"/><g fill="#cbcccd"><path d="M140.592 37.183c.057-.003.111.021.148.064-.056.001-.11-.022-.148-.064m7.322-.006c.037-.043.091-.067.147-.065-.037.043-.091.066-.147.065m-7.531-.065c.056-.002.109.022.145.064-.055.001-.109-.022-.145-.064m7.743-.007c.035-.041.086-.064.14-.064-.034.042-.086.066-.14.064m-7.948-.066c.054 0 .104.023.139.064a.17.17 0 0 1-.139-.064"/></g><g class="d"><path d="M149.815 36.327l.069-.06-.069.06m-11.337-.127l.083.066-.083-.066m11.545-.008l.074-.065-.074.065"/></g><g class="F"><path d="M123.997 13.955l-.062.1c.002-.042.025-.08.062-.1"/><path d="M124.073 13.835l-.054.074c-.002-.034.021-.065.054-.074m-.139.219l-.047.065c-.002-.03.018-.057.047-.065"/></g><path d="M151.148 35.418l.071-.066-.071.066" class="H"/><path d="M124.211 13.616l-.059.088a.1.1 0 0 1 .059-.088" class="F"/><path d="M137.224 35.352l.069.066-.069-.066" class="H"/><path d="M164.734 38.677l.055-.092c.005.04-.018.078-.055.092" fill="#b22228"/><g class="H"><path d="M137.152 35.282l.073.069-.073-.069m14.139.003l.073-.071-.073.071"/></g><path d="M123.859 14.178l-.055.084c-.001-.037.021-.07.055-.084" class="F"/><path d="M124.003 39.149l.06.088c-.038-.012-.063-.048-.06-.088" class="X"/><path d="M137.433 17.576l-.066.064.066-.064" class="D"/><path d="M164.009 13.282l-.06-.078c.035.011.059.042.06.078" class="a"/><path d="M165.344 15.524l-.056-.079c.035.01.058.043.056.079" class="c"/><path d="M133.648 34.786l-.068-.087a.1.1 0 0 1 .068.087" class="R"/><path d="M152.131 18.554l-.069-.068.069.068" class="N"/><g fill="#dddede"><path d="M152.905 19.396l-.069-.071.069.071"/><path d="M152.971 19.466l-.066-.068.066.068"/></g><path d="M134.342 21.22l-.068.073.068-.073" fill="#e6e7e8"/><path d="M151.078 17.639l-.071-.064.071.064" class="D"/><path d="M156.569 6.176l-.079-.06c.036.001.068.025.079.06" fill="#67a3d2"/><path d="M136.381 18.487l-.066.066.066-.066" class="N"/><path d="M152.207 34.448l.07-.078-.07.078" class="b"/><path d="M157.833 46.118l.1-.073c-.018.04-.056.068-.1.073" fill="#bc2329"/><path d="M136.167 34.37l.071.076-.071-.076" class="b"/><path d="M131.022 46.397l.083.06c-.038.002-.073-.023-.083-.06" class="I"/><path d="M137.574 17.494l-.08.071.08-.071" class="D"/><path d="M152.978 33.599l.07-.074-.07.074" class="W"/><path d="M132.622 47.381l.1.057a.1.1 0 0 1-.1-.057" class="K"/><g class="W"><path d="M135.397 33.524l.069.074-.069-.074m17.649.001l.069-.071-.069.071"/><path d="M135.331 33.455l.066.069-.066-.069"/></g><path d="M165.416 15.668l-.055-.094c.034.02.054.055.055.094" class="c"/><path d="M150.87 17.497l-.074-.069.074.069" class="D"/><path d="M136.452 18.417l-.066.065.066-.065" class="N"/><path d="M132.012 32.046l-.054-.106c.037.022.059.063.054.106" class="B"/><path d="M134.203 31.697l.066.071-.066-.071" fill="#e7e8e8"/><path d="M122.66 16.428l-.051.084c-.005-.037.016-.072.051-.084" class="C"/><path d="M149.535 16.652l-.071-.061.071.061" class="O"/><path d="M151.219 35.354l.073-.07-.073.07" class="H"/><g fill="#004469"><path d="M217.382 24.087c-.227-1.471-.933-2.825-2.007-3.855a7.23 7.23 0 0 0-3.007-1.679 12.68 12.68 0 0 0-6.7-.076 7.99 7.99 0 0 0-5.588 4.621 11.92 11.92 0 0 0-.757 7.956 7.42 7.42 0 0 0 4.438 5.239 12 12 0 0 0 4.156.94 25.71 25.71 0 0 0 6.981-.582c.2-.013.358-.175.367-.375l.564-3.32c.027-.07.021-.148-.015-.213a1.18 1.18 0 0 0-.428.108 22.01 22.01 0 0 1-4.626.987 8.37 8.37 0 0 1-2.826-.176 4.75 4.75 0 0 1-3.387-2.8 6.04 6.04 0 0 1-.436-2.507c.006-.429-.056-.391.4-.391q6.186 0 12.374 0h.282c.095 0 .153-.034.163-.138.008-.07.031-.138.042-.206a10.3 10.3 0 0 0 .013-3.531m-5 1.4h-2.143-5.553-.246c-.122 0-.175-.043-.148-.169l.089-.447c.213-.954.695-1.827 1.39-2.515a4.22 4.22 0 0 1 2.877-1.207 5.3 5.3 0 0 1 1.7.194 2.79 2.79 0 0 1 1.907 1.767 6.39 6.39 0 0 1 .359 2.171c0 .183-.084.209-.236.208m87.553-.855a7.52 7.52 0 0 0-.979-3.017 6.7 6.7 0 0 0-3.895-2.989 12.41 12.41 0 0 0-7.371-.02 7.84 7.84 0 0 0-5.024 4.249 11.88 11.88 0 0 0-.85 8.279 7.4 7.4 0 0 0 4.493 5.192 12 12 0 0 0 4.024.9 25.43 25.43 0 0 0 7.119-.6c.162-.037.236-.09.261-.262l.338-1.971.283-1.653a1.42 1.42 0 0 0-.485.11 22.02 22.02 0 0 1-4.591.984 8.41 8.41 0 0 1-2.862-.175 4.76 4.76 0 0 1-3.353-2.744 6.31 6.31 0 0 1-.456-2.783c0-.113.034-.177.159-.171h.282 12.48c.264-.005.265-.005.311-.254a10.22 10.22 0 0 0 .117-3.077m-5.149.855h-7.9c-.1 0-.154-.032-.135-.147a4.64 4.64 0 0 1 4.407-4.192 5.79 5.79 0 0 1 1.428.133c1.074.206 1.938 1.006 2.225 2.062.175.595.267 1.212.275 1.832.011.308.005.312-.3.312"/></g><path d="M138.31 38.754l.006-.024c.01.013.027.023.029.037.008.046.046.009 0 .027-.008 0-.027-.025-.04-.04" class="K"/><path d="M160.077 8.919c.078.062.191.1.161.229-.006.009-.017.015-.028.015-.139-.028-.121-.141-.132-.245" fill="#72aedc"/><path d="M156.559 46.948l-.017-.019.019.018" class="S"/><path d="M123.081 37.536c.015-.014.027-.034.045-.039s.034.009.014.023-.038.015-.059.017" class="G"/><path d="M131.351 22.433l-.008-.023h.022z" class="C"/><path d="M122.2 17.914h.022l-.011.022z" class="L"/><path d="M148.959 13.99l.014-.02-.011.022" fill="#639ecd"/></g></svg>