<svg xmlns="http://www.w3.org/2000/svg" width="100" height="43"><g fill="none" fill-rule="evenodd"><path fill="#005a99" d="M0 43h100V0H0z"/><path d="M67.742 30.22c-.636.507-2.373-1.156-2.528-1.372h-.002c-.156-.215-1.192-2.386-.517-2.837.943-.632 3.295.668 3.367.76.066.1.571 2.745-.32 3.449m1.898-4.597h-.002v-.002.002c-2.441-1.673-4.124-2.026-5.328-.89-1.131 1.068-.474 3.06.471 4.43 1.01 1.327 2.692 2.57 4.054 1.82 1.45-.798 1.634-2.513.805-5.36" fill="#fff"/><path d="M71.827 24.028c-2.164-1.02-3.542-.957-4.4-.8-.07.013-.126.046-.106.07.015.02.034.027.11.055 1.145.428 2.221.99 3.021 1.675v.002c.403.974.604 2.176.656 3.4.002.083.003.103.017.122.017.026.066-.016.101-.08.412-.769.898-2.066.601-4.442v-.002" fill="#afdff9"/><path d="M73.582 22.747v.002c-.872-.55-2.39-.62-3.387-.328-.088.023-.126.051-.111.07.011.019.04.03.095.046 1.282.306 1.891.587 2.455.903.125.634.204 1.302.097 2.622-.003.056-.001.086.013.104.015.018.051-.007.1-.085.588-.86.988-2.331.738-3.332zM81.22 31.4c.284.764-1.826 1.908-2.08 1.99-.253.082-2.63.402-2.85-.382-.306-1.095 1.653-2.938 1.762-2.978.113-.033 2.778.303 3.169 1.37m-3.77-3.23h-.001c-2.339 1.814-3.195 3.309-2.49 4.81.663 1.41 2.753 1.397 4.345.92V33.9c1.57-.554 3.268-1.774 2.977-3.306-.308-1.631-1.877-2.335-4.832-2.424" fill="#fff"/><path d="M76.614 25.59c-1.634 1.75-2 3.085-2.118 3.95-.008.07.006.135.036.124.022-.007.035-.023.085-.09.76-.959 1.625-1.814 2.522-2.363v-.002s0 .002.002.002c1.048-.084 2.248.097 3.425.424.078.024.097.03.12.022.03-.008.005-.067-.045-.122-.602-.63-1.68-1.495-4.025-1.945z" fill="#afdff9"/><path d="M75.943 23.517v.002c-.789.664-1.325 2.088-1.355 3.13-.005.093.01.137.033.13.02-.006.039-.03.07-.078.687-1.13 1.142-1.623 1.616-2.064.64.079 1.297.209 2.515.717.052.02.082.028.102.02.023-.006.01-.051-.048-.122-.635-.824-1.904-1.662-2.93-1.733 0 0-.003 0-.003-.002M86.506 18.904c.812-.035 1.244 2.332 1.242 2.599l.002.002c0 .266-.433 2.633-1.244 2.6-1.132-.046-2.273-2.484-2.278-2.6.005-.12 1.146-2.558 2.278-2.601m-4.227 2.599v.002c.997 2.79 2.149 4.07 3.79 3.861 1.54-.198 2.175-2.194 2.214-3.861v-.002c-.04-1.668-.672-3.666-2.214-3.862-1.641-.21-2.793 1.069-3.79 3.862" fill="#fff"/><path d="M79.574 21.504c1.154 2.099 2.306 2.861 3.09 3.241.066.03.13.036.13.005 0-.025-.013-.04-.06-.109-.675-1.022-1.215-2.111-1.46-3.137h-.002l.001-.002c.246-1.025.788-2.114 1.462-3.137.046-.067.058-.085.058-.108 0-.032-.063-.024-.13.005-.783.38-1.936 1.142-3.088 3.24v.002" fill="#afdff9"/><path d="M77.403 21.504l.001-.002c.385.96 1.57 1.913 2.55 2.264.084.033.132.031.132.008 0-.021-.017-.047-.052-.092-.859-1.004-1.185-1.59-1.458-2.18.273-.585.6-1.173 1.458-2.177.035-.044.052-.071.05-.092 0-.023-.045-.025-.13.008-.98.35-2.165 1.304-2.55 2.261zM76.293 9.999c.218-.785 2.596-.466 2.848-.384.255.083 2.365 1.227 2.083 1.99-.394 1.067-3.057 1.403-3.17 1.371-.11-.04-2.07-1.884-1.761-2.977m1.158 4.837h.001c2.955-.088 4.523-.793 4.831-2.424.29-1.531-1.407-2.754-2.975-3.305h-.002c-1.593-.478-3.683-.493-4.344.918-.707 1.501.15 2.996 2.489 4.811" fill="#fff"/><path d="M76.616 17.416h.001c2.346-.451 3.424-1.316 4.026-1.946.05-.054.075-.113.044-.122-.023-.008-.041-.001-.12.022-1.177.329-2.377.508-3.425.426h-.002v-.001c-.897-.552-1.763-1.404-2.522-2.364-.05-.066-.063-.083-.085-.09-.03-.01-.043.054-.035.126.118.866.484 2.2 2.117 3.949 0-.002 0 0 0 0" fill="#afdff9"/><path d="M75.946 19.488l-.001-.001c1.028-.071 2.298-.908 2.932-1.734.057-.07.072-.115.048-.123-.02-.007-.05.001-.103.021-1.217.509-1.873.64-2.515.718-.472-.441-.928-.935-1.614-2.064-.031-.048-.05-.071-.072-.076-.022-.008-.038.035-.031.127.029 1.041.566 2.469 1.355 3.13v.002M64.697 16.993c-.677-.451.36-2.623.517-2.836v-.002c.156-.216 1.894-1.877 2.529-1.371.89.704.385 3.35.32 3.448-.073.092-2.425 1.393-3.366.76m4.942.39h.001v-.001c.829-2.846.646-4.56-.804-5.36-1.362-.748-3.046.493-4.054 1.82-.944 1.372-1.604 3.362-.471 4.429 1.203 1.14 2.886.783 5.328-.887" fill="#fff"/><path d="M71.827 18.976c.297-2.379-.189-3.674-.6-4.444-.036-.064-.084-.107-.102-.08-.014.019-.014.04-.017.121-.051 1.225-.252 2.426-.654 3.4v.002h-.002c-.799.685-1.876 1.248-3.02 1.676-.077.028-.096.035-.11.054-.02.025.036.058.108.071.856.157 2.235.22 4.396-.799h.001" fill="#afdff9"/><path d="M73.584 20.257h-.001c.25-1.002-.15-2.474-.737-3.334-.05-.077-.088-.103-.102-.084-.013.017-.015.047-.012.104.107 1.319.027 1.985-.098 2.622-.562.315-1.171.596-2.455.904-.053.013-.083.025-.094.043-.014.02.022.048.11.07.997.294 2.516.223 3.388-.325zM45.597 28.553V15.921h-2.904v15.354h10.961v-2.722zm-12.99-3.133l-4.05-9.499h-2.986l6.547 15.354h1.033l6.45-15.354h-2.977l-4.016 9.5zM21.307 25.03h-3.884c.333-.792 1.404-3.337 1.88-4.472l2.004 4.472zm-1.008-9.11h-2.01L11.77 31.276H14.8l1.498-3.567h6.21l1.598 3.567h3.024z" fill="#fff"/></g></svg>