<svg xmlns="http://www.w3.org/2000/svg" version="1.0" width="1200" height="621.85"><path d="M762.235 17.664l-194.457 195.47h-164.99L245.669 370.252h192.207v195.47l195.47-195.47h163.867l157.118-157.118H762.235zm-39.588 94.923v100.547h-100.66zM418.645 252.722h109.658l-78.053 77.94H340.705zm166.116 0h109.656l-79.177 77.94H505.696zm164.99 0h109.657l-78.053 77.94H671.811zM578.013 369.127L477.466 469.673v-99.421zm54.21 118.766v116.292h32.84c34.998 0 66.694-11.232 66.694-57.584 0-47.497-31.696-58.708-66.694-58.708zm23.73 17.995h13.609c19.27 0 38.351 14.673 38.351 40.713 0 24.895-19.082 39.59-38.351 39.59h-13.609zm237.533-18.22c-2.735-.074-5.416.082-8.098.225H843.55v116.292h23.73v-42.963h16.983c10.104 0 13.538 3.422 16.87 12.484l12.597 30.48h28.23l-19.233-40.602c-3.437-6.77-4.61-9.046-10.234-12.484 0 0 20.378-5.626 19.232-28.23 0-27.706-19.1-34.68-38.24-35.202zm-26.205 19.345h15.858c12.395 0 22.576 3.463 23.618 15.858v3.261c-1.042 12.5-11.223 15.858-23.618 15.858h-15.858zm-111.82 97.173h68.954v-19.165h-45.31v-97.183h-23.644z" fill="#231f20" fill-rule="evenodd"/></svg>