<svg xmlns="http://www.w3.org/2000/svg" width="310" height="93" viewBox="0 0 541.293 163.107" fill="#231f20"><path d="M103.765 38.842V.006L64.984 38.842h-33.28L0 70.551l39.037.003v38.939L77.995 70.54h32.99l31.682-31.698zM95.8 19.288v19.577H76.223zm-76.55 43.26l15.68-15.701h21.989L41.228 62.548zm27.695 27.846V70.539h19.81zm27.847-27.846H52.556l15.68-15.701h22.24zm32.935 0H86.069l15.681-15.701h21.668l-15.692 15.701M84.609 93.867H78.13v23.678h6.478c7.257 0 13.67-2.442 13.67-11.839s-6.414-11.84-13.67-11.84zm.915 19.947h-2.642V97.6h2.642c3.967 0 7.802 2.952 7.802 8.107s-3.835 8.107-7.802 8.107m17.784-19.947h4.751v19.947h9.191v3.731h-13.943V93.867m32.109 14.417c-.473-1.048-1.221-2.34-2.512-2.442v-.067c3.019-.406 4.888-2.714 4.888-5.495 0-6.581-6.076-6.413-11.165-6.413h-5.122v23.678h4.752v-9.834h1.525c1.999 0 2.61.676 3.291 2.439l2.849 7.396h5.291zm-7.596-4.307h-1.563V97.6h1.563c2.37 0 5.018.24 5.018 3.089 0 2.949-2.681 3.288-5.018 3.288m55.062-3.984h-3.971v-2.174c0-1.36.475-2.68 1.999-2.68.989 0 1.557.367 1.972.611l.373-3.769a15.97 15.97 0 0 0-3.328-.378c-3.6 0-5.565 2.446-5.565 5.947v2.443H171v3.326h3.363v14.16h4.549v-14.16h3.971v-3.326m13.918 8.552c0 2.24-.717 5.808-4.009 5.808-2.919 0-2.956-2.887-2.956-5.029v-9.331h-4.54v11.033c0 3.936 1.793 6.858 5.935 6.858 2.384 0 4.348-1.086 5.74-2.779h.071v2.374h4.308V99.993h-4.548v8.552m89.371 5.333c-.485.31-1.259.476-2.073.476-1.729 0-2.14-1.395-2.14-2.887v-8.147h4.037v-3.326h-4.037v-4.958l-4.553 1.459v3.498h-3.356v3.326h3.356v8.898c0 3.458 1.975 5.667 5.536 5.667 1.365 0 2.412-.136 3.364-.405l-.133-3.602m-31.565 1.228v2.374h4.313V99.993h-4.555v8.552c0 2.24-.715 5.808-4.004 5.808-2.912 0-2.952-2.887-2.952-5.029v-9.331h-4.545v11.033c0 3.936 1.801 6.858 5.94 6.858 2.373 0 4.344-1.086 5.737-2.779h.065m18.738-15.112h-3.979v-2.174c0-1.36.479-2.68 2.004-2.68.992 0 1.561.367 1.975.611l.372-3.769a16.14 16.14 0 0 0-3.333-.378c-3.591 0-5.561 2.446-5.561 5.947v2.443h-3.357v3.326h3.357v14.16h4.544v-14.16h3.979v-3.326"/><path d="M227.797 75.887h.061v2.373h4.311V60.776h-4.551v8.563c0 2.235-.709 5.797-4.001 5.797-2.917 0-2.956-2.887-2.956-5.022v-9.339h-4.549v11.036c0 3.936 1.803 6.853 5.941 6.853 2.379 0 4.348-1.083 5.744-2.778m130.237-1.355h-11.48l11.239-16.098v-3.87h-15.747V58.3h10.695l-11.147 16.091v3.87h16.44v-3.729"/><path d="M302.835 70.928h12.076c0-6.114-1.827-10.563-8.309-10.563-5.431 0-8.123 4.175-8.123 9.238 0 5.739 3.365 9.062 9.145 9.062 2.447 0 4.341-.471 5.999-1.388v-3.704c-1.688.958-3.595 1.769-5.807 1.769-2.812 0-4.783-1.597-4.981-4.414zm4.04-7.234c2.552 0 3.564 1.899 3.7 4.11h-7.74c.199-2.338 1.497-4.11 4.04-4.11m-23.056 6.01c0-2.238.72-5.803 4.003-5.803 2.925 0 2.953 2.886 2.953 5.029v9.331h4.56V67.233c0-3.945-1.801-6.867-5.948-6.867-2.367 0-4.34 1.091-5.497 2.784h-.071V52.797h-4.548V78.26h4.548v-8.556m99.708 0c0-2.238.713-5.803 4.007-5.803 2.92 0 2.955 2.886 2.955 5.029v9.331h4.548V67.233c0-3.945-1.796-6.867-5.949-6.867-2.364 0-4.304.783-5.729 2.784h-.065v-2.373h-4.309V78.26h4.544v-8.556m46.751 8.961c2.373 0 4.336-1.083 5.735-2.778h.064v2.373h4.311V60.776h-4.544v8.563c0 2.235-.715 5.797-4.008 5.797-2.916 0-2.953-2.887-2.953-5.022v-9.339h-4.555v11.036c0 3.936 1.804 6.853 5.951 6.853m91.824 32.399c0-2.517 0-7.134 3.705-7.134.808 0 1.623.136 2.032.382v-4.595c-.475-.125-.947-.125-1.381-.125-2.719 0-4.591 2.747-4.801 4.37h-.059v-3.966h-4.043v17.486h4.547v-6.417M272.111 78.665c1.865 0 3.227-.167 4.548-.575l-.203-3.763c-.78.339-2.208.811-3.497.811-3.187 0-4.719-2.477-4.719-5.702 0-3.296 1.805-5.534 4.616-5.534 1.392 0 2.279.271 3.091.639l.404-3.592c-1.249-.377-2.579-.582-4.412-.582-5.464 0-8.445 4.008-8.445 9.069 0 5.327 2.888 9.23 8.617 9.23m144.249-6.821c0-2.505 0-7.128 3.693-7.128.815 0 1.629.131 2.037.377v-4.593c-.472-.135-.945-.135-1.387-.135-2.719 0-4.591 2.752-4.789 4.383h-.068v-3.972H411.8V78.26h4.56v-6.416m-15.964 1.154c0 3.465 1.968 5.667 5.535 5.667 1.356 0 2.409-.13 3.364-.405l-.141-3.595c-.472.304-1.251.472-2.061.472-1.739 0-2.143-1.392-2.143-2.887v-8.147h4.04v-3.327h-4.04v-4.955l-4.553 1.46v3.495h-3.352v3.327h3.352v8.895M198.804 92.865h-3.94v3.933h3.94v-3.933m-18.1-38.302h-6.487V78.26h6.487c7.267 0 13.68-2.441 13.68-11.847s-6.413-11.85-13.68-11.85zm.916 19.968h-2.644V58.3h2.644c3.973 0 7.807 2.953 7.807 8.114s-3.833 8.118-7.807 8.118m6.252 22.266h3.94v-3.933h-3.94v3.933"/><path d="M237.942 72.998c0 3.465 1.968 5.667 5.528 5.667 1.356 0 2.412-.13 3.368-.405l-.144-3.595c-.468.304-1.249.472-2.065.472-1.728 0-2.139-1.392-2.139-2.887v-8.147h4.037v-3.327h-4.037v-4.955l-4.548 1.46v3.495h-3.361v3.327h3.361v8.895m18.939.206c0 1.699-1.843 2.138-2.991 2.138-1.563 0-3.051-.44-4.475-1.156l-.273 3.736c1.66.442 3.427.742 5.159.742 3.699 0 7.327-1.625 7.327-5.698 0-6.315-7.907-4.553-7.907-7.339 0-1.49 1.461-1.935 2.68-1.935 1.667 0 2.68.273 4.075.748l.3-3.429c-1.419-.305-2.813-.647-4.949-.647-3.563 0-6.852 1.668-6.852 5.438 0 6.31 7.907 3.97 7.907 7.4m-29.463 20.574v23.703h13.959v-3.737h-9.2V93.776h-4.759m-17.788 10.183h-.065v-3.966h-4.041v17.486h4.556v-6.417c0-2.517 0-7.134 3.692-7.134.823 0 1.636.136 2.037.382v-4.595c-.475-.125-.949-.125-1.387-.125-2.721 0-4.591 2.747-4.792 4.37m-8.492-33.032h12.089c0-6.114-1.833-10.563-8.323-10.563-5.428 0-8.113 4.175-8.113 9.238 0 5.739 3.356 9.062 9.135 9.062 2.443 0 4.348-.471 6.015-1.388v-3.704c-1.703.958-3.601 1.769-5.808 1.769-2.823 0-4.785-1.597-4.995-4.414zm4.041-7.234c2.543 0 3.563 1.899 3.7 4.11h-7.741c.209-2.338 1.496-4.11 4.041-4.11m82.35 46.52h8.92v-3.737h-8.92v3.737m205.654 3.359l-.067-4.379v-2.242c0-5.159-2.213-7.363-7.533-7.363a15.57 15.57 0 0 0-6.08 1.323l.131 3.898c1.531-1.156 3.467-1.902 5.403-1.902 2.685 0 3.939.955 3.939 3.768h-2.512c-1.904 0-4.149.178-5.873 1.025-1.732.843-2.985 2.372-2.985 4.99 0 3.325 3.024 5.192 6.12 5.192 2.065 0 4.336-1.086 5.379-3.02h.073c.027.539.027 1.696.207 2.616h4.013c-.117-1.359-.18-2.581-.213-3.906zm-5.156-.575c-.721.949-1.805 1.559-3.193 1.559-1.631 0-2.88-.644-2.88-2.141 0-2.681 3.019-3.017 5.053-3.017h1.968c0 1.356-.207 2.611-.948 3.599"/><path d="M468.299 117.479h4.557v-14.16h3.969v-3.326h-3.969v-2.174c0-1.36.469-2.68 1.997-2.68.989 0 1.563.367 1.972.611l.368-3.769c-.88-.204-2.172-.378-3.327-.378-3.595 0-5.568 2.446-5.568 5.947v2.443h-3.357v3.326h3.357v14.16m-11-17.889c-2.135 0-4.408.98-5.463 3.081-.988-2.167-2.716-3.081-5.155-3.081a6.13 6.13 0 0 0-5.193 2.844h-.064v-2.44h-4.248v17.486h4.543v-8.491c0-2.277.372-5.871 3.391-5.871 2.625 0 2.625 2.303 2.625 3.935v10.427h4.541v-8.491c0-2.277.383-5.871 3.397-5.871 2.611 0 2.611 2.303 2.611 3.935v10.427h4.555v-11.035c0-3.904-1.227-6.854-5.54-6.854m51.365 8.553v9.335h4.555v-11.035c0-3.94-1.8-6.854-5.945-6.854-2.372 0-4.34 1.083-5.495 2.778h-.068V92.01h-4.551v25.469h4.551v-8.561c0-2.241.713-5.801 4.007-5.801 2.92 0 2.947 2.887 2.947 5.027M465.543 78.26h4.547V67.233c0-3.911-1.221-6.867-5.531-6.867-2.135 0-4.411.99-5.465 3.095-.977-2.171-2.721-3.095-5.155-3.095-1.705 0-3.773.719-5.201 2.86h-.061v-2.449h-4.247V78.26h4.545v-8.487c0-2.276.383-5.872 3.401-5.872 2.616 0 2.616 2.308 2.616 3.939v10.42h4.543v-8.487c0-2.276.381-5.872 3.397-5.872 2.611 0 2.611 2.308 2.611 3.939v10.42m75.746 39.219l-.141-3.602c-.475.31-1.249.476-2.068.476-1.729 0-2.136-1.395-2.136-2.887v-8.147h4.039v-3.326h-4.039v-4.958l-4.548 1.459v3.498h-3.363v3.326h3.363v8.898c0 3.458 1.968 5.667 5.527 5.667 1.369 0 2.415-.136 3.367-.405M360.64 92.01v10.013h-.06c-1.353-1.663-2.956-2.434-5.227-2.434-5.365 0-7.329 4.274-7.329 9.094 0 4.789 1.964 9.201 7.329 9.201 2.14 0 4.008-.677 5.364-2.378h.067v1.973h4.42V92.01zm-4.023 22.343c-2.991 0-3.848-3.261-3.848-5.67 0-2.345.825-5.566 3.78-5.566 2.913 0 4.068 3.121 4.068 5.566 0 2.48-.991 5.67-4 5.67m-36.327.752v2.374h4.309V99.993h-4.551v8.552c0 2.24-.713 5.808-3.997 5.808-2.924 0-2.959-2.887-2.959-5.029v-9.331h-4.547v11.033c0 3.936 1.796 6.858 5.933 6.858 2.38 0 4.343-1.086 5.741-2.779h.069"/><path d="M321.709 65.629c0-1.49 1.467-1.935 2.684-1.935 1.661 0 2.68.273 4.067.748l.313-3.429c-1.425-.305-2.831-.647-4.951-.647-3.568 0-6.864 1.668-6.864 5.438 0 6.31 7.907 3.97 7.907 7.4 0 1.699-1.836 2.138-2.98 2.138-1.568 0-3.063-.44-4.492-1.156l-.273 3.736c1.668.442 3.432.742 5.167.742 3.703 0 7.331-1.625 7.331-5.698 0-6.315-7.908-4.553-7.908-7.339m11.686 43.291c0-2.241.709-5.801 4.004-5.801 2.925 0 2.952 2.887 2.952 5.027v9.335h4.551v-11.035c0-3.94-1.803-6.854-5.945-6.854-2.38 0-4.315.771-5.74 2.778h-.064v-2.374h-4.305v17.486h4.548v-8.561m95.217 6.186h.072v2.374h4.308V99.993h-4.547v8.552c0 2.24-.715 5.808-4.008 5.808-2.919 0-2.949-2.887-2.949-5.029v-9.331h-4.555v11.033c0 3.936 1.803 6.858 5.94 6.858 2.384 0 4.341-1.086 5.739-2.779m-15.071-1.532l-.072-4.379v-2.242c0-5.159-2.201-7.363-7.535-7.363-1.932 0-4.311.505-6.072 1.323l.135 3.898c1.535-1.156 3.463-1.902 5.4-1.902 2.676 0 3.931.955 3.931 3.768h-2.508c-1.899 0-4.141.178-5.88 1.025-1.721.843-2.984 2.372-2.984 4.99 0 3.325 3.027 5.192 6.109 5.192 2.065 0 4.348-1.086 5.4-3.02h.067c.033.539.033 1.696.199 2.616h4.017c-.104-1.359-.173-2.581-.207-3.906zm-5.156-.575c-.716.949-1.8 1.559-3.189 1.559-1.636 0-2.892-.644-2.892-2.141 0-2.681 3.027-3.017 5.063-3.017h1.961c0 1.356-.201 2.611-.943 3.599"/><path d="M392.699 108.209c-.484-1.052-1.225-2.342-2.517-2.445v-.068c3.029-.408 4.887-2.716 4.887-5.504 0-6.582-6.067-6.417-11.157-6.417h-5.131v23.703h4.752v-9.845h1.524c2.003 0 2.619.677 3.301 2.441l2.844 7.405h5.297zm-7.6-4.312h-1.567v-6.383h1.567c2.376 0 5.027.236 5.027 3.091 0 2.952-2.696 3.292-5.027 3.292m-21.195-32.969h12.085c0-6.114-1.829-10.563-8.317-10.563-5.431 0-8.119 4.175-8.119 9.238 0 5.739 3.368 9.062 9.143 9.062 2.44 0 4.336-.471 6.009-1.388v-3.704c-1.709.958-3.605 1.769-5.808 1.769-2.817 0-4.789-1.597-4.993-4.414zm4.045-7.234c2.543 0 3.559 1.899 3.692 4.11h-7.737c.204-2.338 1.495-4.11 4.045-4.11m-178.94 82.67h-5.136v-1.902h7.325v11.003c-2.252.984-4.439 1.365-6.881 1.365-6.976 0-11.163-4.599-11.163-11.449 0-6.721 4.313-11.444 11.163-11.444 1.68 0 4.439.284 5.929 1.045l-.253 2.03c-1.712-.953-3.741-1.174-5.676-1.174-5.74 0-8.975 4.057-8.975 9.543 0 5.582 3.14 9.545 8.975 9.545 1.364 0 3.647-.159 4.692-.792v-7.77m18.36 9.574c-1.396.574-3.203.891-4.693.891-5.359 0-7.356-3.615-7.356-8.468 0-4.947 2.727-8.468 6.817-8.468 4.565 0 6.436 3.681 6.436 8.025v1.012h-11.067c0 3.427 1.84 6.186 5.328 6.186 1.459 0 3.583-.604 4.535-1.206zm-.984-8.718c0-2.821-1.141-5.614-4.12-5.614-2.951 0-4.759 2.952-4.759 5.614h8.879"/><path d="M212.378 143.891l-.127-3.614h1.999v3.107h.064c.727-1.807 2.092-3.49 4.152-3.49a5.84 5.84 0 0 1 1.395.192v2.092a5.32 5.32 0 0 0-1.457-.19c-3.171 0-4.027 3.554-4.027 6.468v7.993h-1.999v-12.558m30.092 12.558v-10.75c0-2.284-.856-4.092-3.425-4.092-2.187 0-4.344 1.874-4.344 5.898v8.944h-1.999v-10.75c0-2.284-.853-4.092-3.424-4.092-2.187 0-4.343 1.874-4.343 5.898v8.944h-1.999v-12.367l-.125-3.805h1.933v2.727l.064.032c.633-1.111 1.584-3.141 5.043-3.141 1.424 0 3.772.604 4.28 3.427h.063c.729-1.904 2.632-3.427 5.169-3.427 3.265 0 5.104 2.284 5.104 5.423v11.131h-1.997m16.172-2.601h-.064c-.888 1.933-3.139 2.982-5.136 2.982-4.599 0-5.328-3.109-5.328-4.567 0-5.422 5.773-5.676 9.956-5.676h.38v-.824c0-2.759-.981-4.156-3.676-4.156-1.681 0-3.268.381-4.756 1.332v-1.932c1.236-.603 3.329-1.112 4.756-1.112 3.996 0 5.675 1.809 5.675 6.026v7.135c0 1.301 0 2.283.16 3.393h-1.967zm-.192-5.548h-.569c-3.456 0-7.577.348-7.577 3.9 0 2.126 1.521 2.918 3.36 2.918 4.695 0 4.787-4.09 4.787-5.836v-.982m6.756-4.218l-.128-3.805h1.936v2.883h.063c.664-1.457 1.869-3.266 5.232-3.266 3.996 0 5.517 2.666 5.517 6.218v10.337h-1.995v-9.83c0-3.043-1.084-5.012-3.841-5.012-3.647 0-4.785 3.204-4.785 5.898v8.944h-1.999v-12.367m33.419-9.767h2.472l8.787 22.134h-2.284l-2.375-5.931h-11.165l-2.379 5.931h-2.123zm1.08 2.093l-4.821 12.208h9.609zm23.941 19.53c-1.397.574-3.205.891-4.695.891-5.36 0-7.355-3.615-7.355-8.468 0-4.947 2.727-8.468 6.815-8.468 4.565 0 6.437 3.681 6.437 8.025v1.012h-11.065c0 3.427 1.837 6.186 5.327 6.186 1.457 0 3.584-.604 4.536-1.206zm-.987-8.718c0-2.821-1.139-5.614-4.119-5.614-2.948 0-4.757 2.952-4.757 5.614h8.876m5.997-3.329l-.125-3.614h1.996v3.107h.065c.727-1.807 2.091-3.49 4.149-3.49.476 0 1.048.095 1.397.192v2.092c-.412-.124-.952-.19-1.457-.19-3.175 0-4.027 3.554-4.027 6.468v7.993h-1.999v-12.558m16.296-3.997c5.233 0 7.547 4.06 7.547 8.468s-2.313 8.468-7.547 8.468-7.543-4.06-7.543-8.468 2.313-8.468 7.543-8.468zm0 15.223c3.487 0 5.361-3.013 5.361-6.755s-1.875-6.755-5.361-6.755-5.357 3.014-5.357 6.755 1.873 6.755 5.357 6.755m10.086-1.014c1.205.6 2.663 1.014 4.217 1.014 1.901 0 3.584-1.046 3.584-2.886 0-3.838-7.771-3.234-7.771-7.927 0-3.204 2.6-4.409 5.264-4.409.855 0 2.569.192 3.995.732l-.189 1.743c-1.045-.476-2.472-.762-3.584-.762-2.06 0-3.488.636-3.488 2.697 0 3.011 7.959 2.633 7.959 7.927 0 3.424-3.2 4.599-5.64 4.599-1.557 0-3.109-.191-4.539-.764l.192-1.963m13.38-13.827h2.001l-.131 2.947h.065c.508-.885 1.744-3.33 5.168-3.33 4.756 0 6.659 3.554 6.659 8.468 0 4.791-2.22 8.468-6.659 8.468-2.536 0-4.057-1.048-5.043-3.141h-.06v9.418h-2.001zm6.787 1.33c-3.549 0-4.785 3.806-4.785 6.755s1.236 6.755 4.785 6.755c3.807 0 4.789-3.616 4.789-6.755s-.983-6.755-4.789-6.755m20.325 12.241h-.063c-.888 1.933-3.14 2.982-5.14 2.982-4.597 0-5.325-3.109-5.325-4.567 0-5.422 5.773-5.676 9.957-5.676h.383v-.824c0-2.759-.984-4.156-3.679-4.156-1.684 0-3.267.381-4.76 1.332v-1.932c1.236-.603 3.331-1.112 4.76-1.112 3.992 0 5.675 1.809 5.675 6.026v7.135c0 1.301 0 2.283.159 3.393h-1.967zm-.188-5.548h-.573c-3.457 0-7.577.348-7.577 3.9 0 2.126 1.524 2.918 3.36 2.918 4.695 0 4.791-4.09 4.791-5.836v-.982m17.276-5.868c-1.076-.475-2.379-.825-3.453-.825-3.901 0-6.091 2.825-6.091 6.755 0 3.678 2.22 6.755 5.869 6.755 1.265 0 2.44-.286 3.644-.729l.189 1.871c-1.36.476-2.631.571-4.155.571-5.197 0-7.733-3.965-7.733-8.468 0-4.978 3.2-8.468 7.991-8.468a11.97 11.97 0 0 1 3.897.638l-.159 1.9m14.401 13.506c-1.4.574-3.203.891-4.696.891-5.359 0-7.356-3.615-7.356-8.468 0-4.947 2.729-8.468 6.819-8.468 4.564 0 6.437 3.681 6.437 8.025v1.012h-11.068c0 3.427 1.839 6.186 5.327 6.186 1.46 0 3.584-.604 4.537-1.206zm-.987-8.718c0-2.821-1.14-5.614-4.121-5.614-2.948 0-4.756 2.952-4.756 5.614h8.877m30.222-10.433c-1.396-.729-3.391-.95-4.949-.95-5.736 0-8.969 4.057-8.969 9.543 0 5.582 3.137 9.545 8.969 9.545 1.463 0 3.681-.19 4.949-.95l.125 1.902c-1.204.731-3.676.952-5.075.952-6.972 0-11.16-4.599-11.16-11.449 0-6.721 4.313-11.444 11.16-11.444 1.301 0 3.933.22 5.075.825l-.125 2.026m16.583 19.151c-1.399.574-3.204.891-4.696.891-5.357 0-7.356-3.615-7.356-8.468 0-4.947 2.729-8.468 6.819-8.468 4.567 0 6.437 3.681 6.437 8.025v1.012h-11.064c0 3.427 1.836 6.186 5.323 6.186 1.461 0 3.584-.604 4.537-1.206zm-.985-8.718c0-2.821-1.141-5.614-4.123-5.614-2.947 0-4.752 2.952-4.752 5.614h8.875m5.992-3.138l-.124-3.805h1.936v2.883h.061c.665-1.457 1.869-3.266 5.229-3.266 3.997 0 5.52 2.666 5.52 6.218v10.337h-1.997v-9.83c0-3.043-1.077-5.012-3.839-5.012-3.645 0-4.788 3.204-4.788 5.898v8.944h-1.999v-12.367m24.609-2.094h-3.677v10.464c0 1.459.54 2.665 2.157 2.665.759 0 1.268-.161 1.836-.381l.127 1.649c-.473.19-1.456.444-2.441.444-3.549 0-3.676-2.442-3.676-5.392v-9.45h-3.169v-1.711h3.169v-3.901l1.997-.698v4.599h3.677v1.711m14.429 13.951c-1.397.574-3.207.891-4.695.891-5.357 0-7.357-3.615-7.357-8.468 0-4.947 2.729-8.468 6.817-8.468 4.568 0 6.437 3.681 6.437 8.025v1.012h-11.068c0 3.427 1.84 6.186 5.329 6.186 1.457 0 3.581-.604 4.536-1.206zm-.987-8.718c0-2.821-1.139-5.614-4.12-5.614-2.949 0-4.759 2.952-4.759 5.614h8.879m5.995-3.329l-.127-3.614h1.999v3.107h.063c.732-1.807 2.093-3.49 4.155-3.49a5.87 5.87 0 0 1 1.397.192v2.092c-.415-.124-.955-.19-1.46-.19-3.172 0-4.027 3.554-4.027 6.468v7.993h-2v-12.558"/></svg>