<svg xmlns="http://www.w3.org/2000/svg" width="178" height="39" fill="none"><g fill="#122d5b"><path d="M168.884 21.934c-.555 2.033-1.896 2.933-3.563 2.933-2.354 0-3.923-1.733-3.923-4.2s1.569-4.2 3.923-4.2c1.667 0 3.008.933 3.465 2.967l4.904-1.2c-.915-3.933-4.381-6.433-8.369-6.433-4.904 0-8.958 3.6-8.958 8.883s4.054 8.883 8.958 8.883c4.087 0 7.552-2.567 8.369-6.533l-4.806-1.067v-.033zm-18.146-11.6c-1.798 0-3.041-1.267-3.041-2.967s1.243-3.033 3.041-3.033 3.007 1.4 3.007 3.033-1.275 2.967-3.007 2.967zm2.632 1.966v16.75h-5.231V16.533h-6.015V29.05h-5.198V16.533h-6.62V29.05h-5.198V16.533h-2.354V12.3h2.354V11c0-3.933 2.648-6.433 6.604-6.433a7.86 7.86 0 0 1 3.236.7L133.837 9.4c-.491-.167-1.014-.267-1.406-.267-1.242 0-2.125.767-2.125 2.1V12.3h6.62V11c0-3.933 2.648-6.433 6.669-6.433a8.27 8.27 0 0 1 2.975.567l-.948 4.2c-.458-.1-.915-.2-1.308-.2-1.307 0-2.19.767-2.19 2.1V12.3h11.246z"/><path fill-rule="evenodd" d="M111.1 25.017c2.125 0 4.021-1.733 4.021-4.333s-1.896-4.333-4.021-4.333c-2.288 0-3.956 1.767-3.956 4.333s1.668 4.333 3.956 4.333zm9.252-12.717v16.75h-5.231v-1.333c-1.275 1.167-2.975 1.833-5.1 1.833-4.348 0-8.009-3.567-8.009-8.883s3.661-8.883 8.009-8.883c2.125 0 3.825.667 5.1 1.833v-1.333h5.231v.017z"/><path d="M100.966 12.2c-.393-.1-.719-.133-1.177-.133-2.681 0-4.479 1.433-5.656 3.433v-3.2h-5.231v16.75h5.231v-5.233c0-4.333 1.994-6.267 5.656-6.267h.948l.229-5.333V12.2zM86.924 28.317l-1.21-4.2c-.686.4-1.667.667-2.386.667-1.373 0-2.19-.7-2.19-2.433v-5.8h4.838v-4.233h-4.838v-4.95h-5.231v4.933h-2.975v4.233h2.975v6.333c0 4.4 2.452 6.667 6.538 6.667 1.864 0 3.204-.533 4.479-1.233"/><path fill-rule="evenodd" d="M66.279 20.667c0 2.633-1.929 4.333-3.956 4.333s-4.054-1.7-4.054-4.333 1.929-4.333 4.054-4.333 3.956 1.733 3.956 4.333zm5.035 0c0-5.267-4.119-8.8-8.99-8.8s-9.088 3.533-9.088 8.8 4.119 8.833 9.088 8.833c4.871 0 8.99-3.533 8.99-8.833z"/><path d="M50.732 18.783c0-4.2-2.55-6.967-6.375-6.967-2.06 0-3.792.767-5.035 2.1v-1.6h-5.231v16.75h5.231V21.3c0-3.233 1.34-4.667 3.4-4.667 1.667 0 2.812 1.333 2.812 3.3v9.133h5.198V18.783z"/></g><path d="M24.237 6.416c.834-.5 1.831-.5 2.664 0s1.324 1.4 1.324 2.383v22.183c0 .983-.507 1.883-1.324 2.383-.409.25-.883.367-1.324.367s-.915-.133-1.324-.367l-5.868-3.783c-.294-.183-.376-.567-.18-.867l2.043-3.55c.082-.183.327-.25.49-.15l1.618.883c.245.15.556-.033.556-.333V14.199a.38.38 0 0 0-.556-.333l-9.53 5.667a.38.38 0 0 0 0 .65l1.389 1.067c.163.1.229.333.131.5-.785 1.2-1.749 2.25-2.632 3.367a.6.6 0 0 1-.752.167l-5.312-3.05c-.834-.467-1.34-1.367-1.34-2.35s.507-1.883 1.324-2.383L24.237 6.416z" fill="#00a9e1"/></svg>