<svg xmlns="http://www.w3.org/2000/svg" viewBox="0 0 978 224"><path d="M135.83 14.02c.63.47 1.43.39 2.11.45 6.14.49 12.1 1.8 17.96 3.64 7.94 2.5 15.35 6.09 22.24 10.75 3.94 2.66 7.6 5.66 11.09 8.89 4.92 4.55 9.14 9.66 12.87 15.18 3.17 4.67 5.7 9.7 7.91 14.91 1.96 4.64 3.44 9.41 4.55 14.3.82 3.58 1.37 7.2 1.67 10.88.3 3.65.56 7.3.4 10.96-.5 11.14-2.79 21.87-7.35 32.1-3.03 6.79-6.78 13.11-11.38 18.92a87.373 87.373 0 0 1-17.4 16.63c-4.24 3.06-8.71 5.77-13.44 8.01-3.77 1.78-7.6 3.45-11.65 4.52-.67.18-1.11.57-1.52 1.18l-18.36 26.94-5.34 7.79c-.09.13-.12.3-.18.45-.11-.07-.22-.15-.33-.22l1.54-6.79 3.2-14.34 2.68-11.77 4.28-19.05.51-2.07c.09-.36.27-.53.71-.62 10.24-2.06 19.48-6.35 27.69-12.79 6.96-5.45 12.55-12.09 16.89-19.8 3.93-6.99 6.43-14.46 7.63-22.37.55-3.61.81-7.26.71-10.91-.29-10.81-2.96-21.01-8.19-30.48-2.42-4.39-5.37-8.42-8.71-12.2-4.9-5.53-10.61-10.03-17.01-13.62a64.05 64.05 0 0 0-18.78-6.98c-5.01-1.01-10.05-1.5-15.15-1.34-7.53.24-14.82 1.66-21.88 4.38-6.23 2.4-11.98 5.65-17.15 9.81-8.56 6.87-15.15 15.35-19.55 25.46-2.38 5.48-4 11.16-4.82 17.08-.38 2.79-.71 5.58-.67 8.4.01.53-.11.87-.62 1.14L43.22 111.9c-.54-3.88-.78-7.68-.74-11.5.12-13.49 3.21-26.28 9.24-38.35 4.53-9.06 10.5-17.07 17.8-24.06A88.182 88.182 0 0 1 87.21 25c8.08-4.5 16.64-7.64 25.7-9.42 3.39-.67 6.82-1.09 10.28-1.34.38-.03.8.13 1.12-.21l11.52-.01z" fill="#0e2c5d"/><path d="M570.72 91.71l21.68-34.73 5.56-8.96c.43-.7.91-.94 1.72-.93l13.19-.01c1.06-.01 1.39.22 1.39 1.35l-.03 53.99.03 32.03c.01 1.15-.36 1.36-1.4 1.35-4.72-.05-9.44-.06-14.15 0-1.11.01-1.39-.31-1.39-1.4l.02-52.43v-1.54c-.59.27-.71.71-.92 1.05l-20 32.3c-.47.76-.93 1.11-1.88 1.09-2.56-.08-5.12-.07-7.68-.01-.9.02-1.41-.24-1.9-1.04l-19.99-32.31-.7-1.08c-.39.48-.24.97-.24 1.39l-.01 52.31c0 1.85.19 1.63-1.69 1.64-4.72.01-9.44-.02-14.15.02-.85.01-1.06-.25-1.06-1.08V48.09c0-.76.18-1.02.99-1.02l13.91-.01c.95-.01 1.23.54 1.61 1.14l26.29 42.5c.21.34.34.75.8 1.01zM150.08 72.8l-30.19 130.57c-.07 0-.15.01-.22.01l-.84-5.01-5.95-36.64-5.35-33.22c-.14-.89-.31-1.38-1.45-1.28l-22.57 1.85-16.48 1.31-22.45 1.81c-4.7.38-9.39.74-14.18.88L150.08 72.8z" fill="#f6941e"/><path d="M342.37 130.55v1.52l.02 30.1c0 1-.27 1.26-1.26 1.25l-14.51-.01c-.87.01-1.24-.11-1.24-1.14l.01-86.47c0-.9.22-1.14 1.12-1.13h14.75c.9-.01 1.19.21 1.13 1.12-.08 1.23-.02 2.46-.02 3.67.43.17.57-.15.76-.31 5.2-4.22 11.19-5.76 17.78-5.28 14.87 1.08 24.73 12.19 26.63 25.89 1.14 8.24.02 16.11-4.34 23.29-5.26 8.67-13.11 13.15-23.21 13.7-6.6.36-12.43-1.61-17.62-6.2zm28.66-26.17c.06-1.16-.21-3.17-.83-5.13-1.66-5.25-5-8.82-10.54-9.8-5.53-.97-10.58.26-13.97 5.01-4.28 6-4.45 12.62-1.44 19.2 4.24 9.25 16.52 9.5 22.07 4.02 3.47-3.4 4.67-7.68 4.71-13.3z" fill="#0e2c5d"/><path d="M708.68 79.9c2.72-2.3 5.45-4.04 8.6-4.92 9.79-2.73 18.71-.9 26.49 5.62 6.14 5.14 9.22 12.02 10.19 19.88 1.04 8.53-.42 16.55-5.18 23.82-7.84 11.97-23.23 15.13-33.81 10.43-2.2-.98-4.17-2.31-6.27-4.03 0 1.51-.06 2.76.02 4 .06.92-.28 1.14-1.16 1.14-4.84-.04-9.67-.05-14.51 0-.99.01-1.28-.26-1.27-1.26l.02-33.58-.02-52.54c0-1.09.27-1.4 1.38-1.39h14.39c.98-.01 1.18.3 1.18 1.22l-.02 30.23c-.03.35-.03.71-.03 1.38zm.02 25.23c-.01 2.25.25 4.46 1.01 6.59 2.04 5.72 6.06 9.04 12.14 9.5 5.84.43 10.58-1.7 13.36-7.03 2.97-5.7 2.97-11.62.27-17.43-4.53-9.76-18.24-9.72-23.59-2.23-2.27 3.18-3.18 6.75-3.19 10.6z" fill="#f6941e"/><path d="M431.33 111.33c-6.36 0-12.71.02-19.07-.02-1.1-.01-1.25.21-.84 1.24 4.44 11.2 18.74 10.74 23.83 3.91.39-.52.68-.57 1.27-.28l12.46 6.09c.91.43.56.81.22 1.33-5.53 8.29-13.32 12.68-23.23 13.15-17.57.84-31.53-12.26-32.29-29.62-.57-12.95 4.16-23.6 15.93-29.79 10.49-5.52 21.2-5.2 31.07 1.95 6 4.34 9.12 10.64 10.64 17.77.93 4.38.99 8.79.51 13.23-.09.81-.38 1.05-1.19 1.05l-19.31-.01zm-7.9-11.85h11.75c.52 0 .99.04.77-.73-1.15-3.92-3.14-7.17-7.16-8.71-5.64-2.15-14.63-.89-17.59 8.35-.32 1-.04 1.11.86 1.1l11.37-.01z" fill="#0e2c5d"/><path d="M887.52 74.69l16.76-.02c.74 0 .82.45.99.94l8.91 26.18 3.65 10.62 2.32-6.75 10.18-29.92c.28-.83.65-1.09 1.51-1.08l14.99.02 1.16.05-4.32 12.02-18.23 49.67c-2.06 5.29-4.37 10.46-7.72 15.11-5.54 7.7-13.19 10.6-22.43 9.91-.8-.06-1.59-.17-2.39-.21-.72-.04-.95-.33-.82-1.06l2.4-14.05c.11-.64.45-.68.92-.57 1.02.23 2.06.27 3.1.27 2.79 0 4.98-1.27 6.72-3.38 1.74-2.12 2.9-4.58 3.96-7.09.3-.7.01-1.24-.2-1.83l-18.22-49.93-3.24-8.9zM622.45 105.2c-.05-14.9 9.26-27.15 23.47-30.53 18.14-4.32 35.33 7.22 37.92 25.55 1.57 11.13-1.35 20.97-9.76 28.59-9.14 8.28-19.98 10.16-31.48 6.06-11.22-3.99-17.55-12.44-19.73-24.06-.19-1.02-.32-2.05-.4-3.09-.08-.84-.02-1.68-.02-2.52zm45.29-.09c-.05-1.76-.25-3.62-.76-5.44-1.73-6.2-6.14-9.97-12.65-10.45-5.51-.41-10.7 1.79-13.57 7.55-1.9 3.81-2.18 7.87-1.57 12.04 1.01 6.84 5.46 11.45 12.26 12.35 5.6.75 11.12-1.43 14.13-6.93 1.54-2.8 2.09-5.84 2.16-9.12z" fill="#f6941e"/><path d="M286.1 136.77c-17.1-.33-30.91-14.42-29.99-33.22.88-18.01 15.18-30.76 32.81-29.71 17.91 1.07 30.08 15.91 28.93 33.56-1.17 18.06-15.49 29.9-31.75 29.37zm15.29-31.54c.07-1.94-.24-3.83-.75-5.68-1.73-6.19-6.69-10.17-12.95-10.39-6.69-.23-11.93 3.28-14.05 9.54-1.36 4-1.45 8.09-.28 12.14 1.45 5.01 4.51 8.64 9.71 9.92 5.3 1.31 10.18.41 14.1-3.66 3.16-3.29 4.17-7.43 4.22-11.87zm175.82-25.32c8.62-8.77 21.26-6.99 27.68-1.78 4.29 3.48 6.56 8.15 7.85 13.38.88 3.58 1.21 7.24 1.21 10.93l.03 32.14c0 1.01-.25 1.25-1.25 1.24-4.8-.06-9.59-.06-14.39 0-1.04.01-1.34-.22-1.33-1.31l.03-32.02c0-2.24-.12-4.47-.8-6.63-1.21-3.83-3.9-6.01-7.73-6.26-4.74-.3-8.07 1.45-9.8 5.14-1.25 2.67-1.49 5.52-1.49 8.42l.03 31.31c.01 1.14-.35 1.36-1.4 1.35a690.26 690.26 0 0 0-14.39 0c-.89.01-1.14-.22-1.14-1.13V75.8c0-.88.2-1.15 1.12-1.14h14.75c.85-.01 1.09.24 1.05 1.07-.08 1.32-.03 2.62-.03 4.18z" fill="#0e2c5d"/><path d="M850.05 106.41l.02-14.38c.01-.91-.25-1.17-1.14-1.15l-6.36.03c-.67.01-.9-.18-.9-.87V75.53c0-.72.26-.86.91-.85l6.48.03c.79.02 1.02-.23 1.01-1.02l-.04-11.27c-.02-1.05.21-1.51 1.33-1.74 4.88-1.02 9.74-2.13 14.59-3.28.89-.21.98.04.98.81l-.03 15.23c-.01.98.22 1.29 1.24 1.28l11.87-.04c.89-.01 1.15.22 1.14 1.13v14.03c.01.84-.25 1.09-1.09 1.08-3.96-.04-7.92.01-11.87-.04-.95-.01-1.31.19-1.3 1.24l.04 19.67c0 1.11.12 2.24.31 3.33.69 3.87 3.21 5.49 7.34 5.09 2.01-.2 3.91-.83 5.56-2.04.54-.4.71-.22.92.29l5.03 11.65c.31.71-.1.92-.49 1.25-3.1 2.55-6.7 3.98-10.63 4.64-4.36.73-8.69.6-12.92-.7-7.03-2.15-10.78-7.12-11.72-14.26-.67-5.17-.11-10.38-.28-14.63zm-42.94-18.13l.03 46.19c0 1.14-.34 1.39-1.41 1.37a690.26 690.26 0 0 0-14.39 0c-.94.01-1.21-.25-1.21-1.21V41.9c0-1.04.32-1.24 1.29-1.23h14.39c1.04-.01 1.34.23 1.33 1.31l-.03 46.3zm-45.55 16.92l-.02-29.26c0-.97.2-1.28 1.23-1.27l14.63.01c.84-.01 1.08.24 1.08 1.07l.01 58.88c0 1.02-.38 1.16-1.26 1.16-4.84-.03-9.67-.04-14.51.01-.98.01-1.17-.31-1.17-1.22l.01-29.38zm56.58 0l-.02-29.25c0-.97.2-1.29 1.23-1.27l14.51.01c.83-.01 1.18.12 1.18 1.08v58.87c0 1-.35 1.17-1.23 1.16a701.82 701.82 0 0 0-14.51.01c-.99.01-1.17-.32-1.17-1.23l.01-29.38z" fill="#f6941e"/><path d="M103.1 184.07c-21.2-7.12-37.4-20.25-48.93-39.47l18.42-1.48c1.55-.12 3.11-.18 4.65-.39.9-.12 1.45.12 2.02.82 5.37 6.41 11.76 11.58 19.11 15.55.69.37.92.81 1.04 1.55l3.73 22.92c.02.1-.01.22-.04.5z" fill="#0e2c5d"/><path d="M770.02 47.34c5.26-.01 9.4 4.13 9.43 9.42.03 5.26-4.11 9.48-9.35 9.53-5.3.05-9.55-4.15-9.54-9.46 0-5.37 4.1-9.48 9.46-9.49zm56.68 0c5.23.02 9.37 4.21 9.38 9.5.01 5.2-4.26 9.54-9.45 9.44-6.26-.11-9.67-5.19-9.49-9.76.21-5.15 4.27-9.2 9.56-9.18z" fill="#f6941e"/></svg>