<svg version="1.1" id="Layer_1" xmlns="http://www.w3.org/2000/svg" x="0" y="0" viewBox="0 0 978 224" xml:space="preserve"><style>.st0{fill:#0e2c5d}.st1{fill:#f6941e}</style><path class="st0" d="M135.83 14.02c.63.47 1.43.39 2.11.45 6.14.49 12.1 1.8 17.96 3.64 7.94 2.5 15.35 6.09 22.24 10.75 3.94 2.66 7.6 5.66 11.09 8.89 4.92 4.55 9.14 9.66 12.87 15.18 3.17 4.67 5.7 9.7 7.91 14.91 1.96 4.64 3.44 9.41 4.55 14.3.82 3.58 1.37 7.2 1.67 10.88.3 3.65.56 7.3.4 10.96-.5 11.14-2.79 21.87-7.35 32.1-3.03 6.79-6.78 13.11-11.38 18.92a87.373 87.373 0 01-17.4 16.63c-4.24 3.06-8.71 5.77-13.44 8.01-3.77 1.78-7.6 3.45-11.65 4.52-.67.18-1.11.57-1.52 1.18-6.1 9-12.23 17.97-18.36 26.94-1.78 2.6-3.56 5.19-5.34 7.79-.09.13-.12.3-.18.45-.11-.07-.22-.15-.33-.22.52-2.26 1.04-4.52 1.54-6.79 1.07-4.78 2.13-9.56 3.2-14.34.88-3.93 1.79-7.85 2.68-11.77 1.43-6.35 2.85-12.7 4.28-19.05.16-.69.33-1.38.51-2.07.09-.36.27-.53.71-.62 10.24-2.06 19.48-6.35 27.69-12.79 6.96-5.45 12.55-12.09 16.89-19.8 3.93-6.99 6.43-14.46 7.63-22.37.55-3.61.81-7.26.71-10.91-.29-10.81-2.96-21.01-8.19-30.48-2.42-4.39-5.37-8.42-8.71-12.2-4.9-5.53-10.61-10.03-17.01-13.62a64.05 64.05 0 00-18.78-6.98c-5.01-1.01-10.05-1.5-15.15-1.34-7.53.24-14.82 1.66-21.88 4.38-6.23 2.4-11.98 5.65-17.15 9.81-8.56 6.87-15.15 15.35-19.55 25.46-2.38 5.48-4 11.16-4.82 17.08-.38 2.79-.71 5.58-.67 8.4.01.53-.11.87-.62 1.14-6.56 3.45-13.11 6.93-19.77 10.46-.54-3.88-.78-7.68-.74-11.5.12-13.49 3.21-26.28 9.24-38.35 4.53-9.06 10.5-17.07 17.8-24.06A88.182 88.182 0 0187.21 25c8.08-4.5 16.64-7.64 25.7-9.42 3.39-.67 6.82-1.09 10.28-1.34.38-.03.8.13 1.12-.21 3.84-.01 7.68-.01 11.52-.01z"/><path class="st1" d="M570.72 91.71c7.25-11.62 14.47-23.18 21.68-34.73 1.86-2.98 3.74-5.95 5.56-8.96.43-.7.91-.94 1.72-.93 4.4.04 8.8.05 13.19-.01 1.06-.01 1.39.22 1.39 1.35-.04 18-.03 35.99-.03 53.99 0 10.68-.02 21.35.03 32.03.01 1.15-.36 1.36-1.4 1.35-4.72-.05-9.44-.06-14.15 0-1.11.01-1.39-.31-1.39-1.4.03-17.48.02-34.95.02-52.43v-1.54c-.59.27-.71.71-.92 1.05-6.68 10.76-13.35 21.52-20 32.3-.47.76-.93 1.11-1.88 1.09-2.56-.08-5.12-.07-7.68-.01-.9.02-1.41-.24-1.9-1.04-6.64-10.78-13.32-21.54-19.99-32.31-.21-.33-.43-.66-.7-1.08-.39.48-.24.97-.24 1.39-.01 17.44-.01 34.87-.01 52.31 0 1.85.19 1.63-1.69 1.64-4.72.01-9.44-.02-14.15.02-.85.01-1.06-.25-1.06-1.08.02-28.87.02-57.75 0-86.62 0-.76.18-1.02.99-1.02 4.64.04 9.28.05 13.91-.01.95-.01 1.23.54 1.61 1.14 8.76 14.17 17.52 28.34 26.29 42.5.21.34.34.75.8 1.01zM150.08 72.8c-10.11 43.71-20.15 87.14-30.19 130.57-.07 0-.15.01-.22.01-.28-1.67-.57-3.34-.84-5.01-1.99-12.21-3.97-24.42-5.95-36.64-1.79-11.07-3.58-22.14-5.35-33.22-.14-.89-.31-1.38-1.45-1.28-7.52.67-15.04 1.25-22.57 1.85-5.49.44-10.99.87-16.48 1.31-7.48.6-14.96 1.21-22.45 1.81-4.7.38-9.39.74-14.18.88 39.81-20.04 79.62-40.1 119.68-60.28z"/><path class="st0" d="M342.37 130.55v1.52c0 10.03-.01 20.07.02 30.1 0 1-.27 1.26-1.26 1.25-4.84-.05-9.67-.04-14.51-.01-.87.01-1.24-.11-1.24-1.14.03-28.82.03-57.65.01-86.47 0-.9.22-1.14 1.12-1.13 4.92.05 9.83.05 14.75 0 .9-.01 1.19.21 1.13 1.12-.08 1.23-.02 2.46-.02 3.67.43.17.57-.15.76-.31 5.2-4.22 11.19-5.76 17.78-5.28 14.87 1.08 24.73 12.19 26.63 25.89 1.14 8.24.02 16.11-4.34 23.29-5.26 8.67-13.11 13.15-23.21 13.7-6.6.36-12.43-1.61-17.62-6.2zm28.66-26.17c.06-1.16-.21-3.17-.83-5.13-1.66-5.25-5-8.82-10.54-9.8-5.53-.97-10.58.26-13.97 5.01-4.28 6-4.45 12.62-1.44 19.2 4.24 9.25 16.52 9.5 22.07 4.02 3.47-3.4 4.67-7.68 4.71-13.3z"/><path class="st1" d="M708.68 79.9c2.72-2.3 5.45-4.04 8.6-4.92 9.79-2.73 18.71-.9 26.49 5.62 6.14 5.14 9.22 12.02 10.19 19.88 1.04 8.53-.42 16.55-5.18 23.82-7.84 11.97-23.23 15.13-33.81 10.43-2.2-.98-4.17-2.31-6.27-4.03 0 1.51-.06 2.76.02 4 .06.92-.28 1.14-1.16 1.14-4.84-.04-9.67-.05-14.51 0-.99.01-1.28-.26-1.27-1.26.04-11.19.02-22.39.02-33.58 0-17.51.01-35.02-.02-52.54 0-1.09.27-1.4 1.38-1.39 4.8.06 9.59.06 14.39 0 .98-.01 1.18.3 1.18 1.22-.03 10.08-.02 20.15-.02 30.23-.03.35-.03.71-.03 1.38zm.02 25.23c-.01 2.25.25 4.46 1.01 6.59 2.04 5.72 6.06 9.04 12.14 9.5 5.84.43 10.58-1.7 13.36-7.03 2.97-5.7 2.97-11.62.27-17.43-4.53-9.76-18.24-9.72-23.59-2.23-2.27 3.18-3.18 6.75-3.19 10.6z"/><path class="st0" d="M431.33 111.33c-6.36 0-12.71.02-19.07-.02-1.1-.01-1.25.21-.84 1.24 4.44 11.2 18.74 10.74 23.83 3.91.39-.52.68-.57 1.27-.28 4.14 2.06 8.28 4.11 12.46 6.09.91.43.56.81.22 1.33-5.53 8.29-13.32 12.68-23.23 13.15-17.57.84-31.53-12.26-32.29-29.62-.57-12.95 4.16-23.6 15.93-29.79 10.49-5.52 21.2-5.2 31.07 1.95 6 4.34 9.12 10.64 10.64 17.77.93 4.38.99 8.79.51 13.23-.09.81-.38 1.05-1.19 1.05-6.44-.03-12.87-.01-19.31-.01zm-7.9-11.85h11.75c.52 0 .99.04.77-.73-1.15-3.92-3.14-7.17-7.16-8.71-5.64-2.15-14.63-.89-17.59 8.35-.32 1-.04 1.11.86 1.1 3.78-.03 7.57-.01 11.37-.01z"/><path class="st1" d="M887.52 74.69c5.73 0 11.24.01 16.76-.02.74 0 .82.45.99.94 2.97 8.73 5.94 17.45 8.91 26.18 1.17 3.43 2.35 6.86 3.65 10.62.84-2.45 1.58-4.6 2.32-6.75 3.4-9.97 6.81-19.93 10.18-29.92.28-.83.65-1.09 1.51-1.08 5 .04 10 .02 14.99.02.35 0 .7.03 1.16.05-1.46 4.07-2.88 8.05-4.32 12.02-6.01 16.58-11.82 33.23-18.23 49.67-2.06 5.29-4.37 10.46-7.72 15.11-5.54 7.7-13.19 10.6-22.43 9.91-.8-.06-1.59-.17-2.39-.21-.72-.04-.95-.33-.82-1.06.82-4.68 1.62-9.36 2.4-14.05.11-.64.45-.68.92-.57 1.02.23 2.06.27 3.1.27 2.79 0 4.98-1.27 6.72-3.38 1.74-2.12 2.9-4.58 3.96-7.09.3-.7.01-1.24-.2-1.83-6.07-16.64-12.15-33.29-18.22-49.93-1.06-2.9-2.12-5.82-3.24-8.9zM622.45 105.2c-.05-14.9 9.26-27.15 23.47-30.53 18.14-4.32 35.33 7.22 37.92 25.55 1.57 11.13-1.35 20.97-9.76 28.59-9.14 8.28-19.98 10.16-31.48 6.06-11.22-3.99-17.55-12.44-19.73-24.06-.19-1.02-.32-2.05-.4-3.09-.08-.84-.02-1.68-.02-2.52zm45.29-.09c-.05-1.76-.25-3.62-.76-5.44-1.73-6.2-6.14-9.97-12.65-10.45-5.51-.41-10.7 1.79-13.57 7.55-1.9 3.81-2.18 7.87-1.57 12.04 1.01 6.84 5.46 11.45 12.26 12.35 5.6.75 11.12-1.43 14.13-6.93 1.54-2.8 2.09-5.84 2.16-9.12z"/><path class="st0" d="M286.1 136.77c-17.1-.33-30.91-14.42-29.99-33.22.88-18.01 15.18-30.76 32.81-29.71 17.91 1.07 30.08 15.91 28.93 33.56-1.17 18.06-15.49 29.9-31.75 29.37zm15.29-31.54c.07-1.94-.24-3.83-.75-5.68-1.73-6.19-6.69-10.17-12.95-10.39-6.69-.23-11.93 3.28-14.05 9.54-1.36 4-1.45 8.09-.28 12.14 1.45 5.01 4.51 8.64 9.71 9.92 5.3 1.31 10.18.41 14.1-3.66 3.16-3.29 4.17-7.43 4.22-11.87zM477.21 79.91c8.62-8.77 21.26-6.99 27.68-1.78 4.29 3.48 6.56 8.15 7.85 13.38.88 3.58 1.21 7.24 1.21 10.93.01 10.71-.01 21.43.03 32.14 0 1.01-.25 1.25-1.25 1.24-4.8-.06-9.59-.06-14.39 0-1.04.01-1.34-.22-1.33-1.31.05-10.67.03-21.35.03-32.02 0-2.24-.12-4.47-.8-6.63-1.21-3.83-3.9-6.01-7.73-6.26-4.74-.3-8.07 1.45-9.8 5.14-1.25 2.67-1.49 5.52-1.49 8.42 0 10.44-.02 20.87.03 31.31.01 1.14-.35 1.36-1.4 1.35-4.8-.05-9.59-.05-14.39 0-.89.01-1.14-.22-1.14-1.13.03-19.63.03-39.26 0-58.89 0-.88.2-1.15 1.12-1.14 4.92.05 9.83.04 14.75 0 .85-.01 1.09.24 1.05 1.07-.08 1.32-.03 2.62-.03 4.18z"/><path class="st1" d="M850.05 106.41c0-5.42-.03-9.9.02-14.38.01-.91-.25-1.17-1.14-1.15-2.12.06-4.24 0-6.36.03-.67.01-.9-.18-.9-.87.03-4.84.03-9.67 0-14.51 0-.72.26-.86.91-.85 2.16.03 4.32-.02 6.48.03.79.02 1.02-.23 1.01-1.02-.04-3.76.02-7.52-.04-11.27-.02-1.05.21-1.51 1.33-1.74 4.88-1.02 9.74-2.13 14.59-3.28.89-.21.98.04.98.81-.02 5.08.01 10.15-.03 15.23-.01.98.22 1.29 1.24 1.28 3.96-.06 7.91 0 11.87-.04.89-.01 1.15.22 1.14 1.13-.05 4.68-.04 9.35 0 14.03.01.84-.25 1.09-1.09 1.08-3.96-.04-7.92.01-11.87-.04-.95-.01-1.31.19-1.3 1.24.05 6.56.01 13.11.04 19.67 0 1.11.12 2.24.31 3.33.69 3.87 3.21 5.49 7.34 5.09 2.01-.2 3.91-.83 5.56-2.04.54-.4.71-.22.92.29 1.66 3.89 3.32 7.78 5.03 11.65.31.71-.1.92-.49 1.25-3.1 2.55-6.7 3.98-10.63 4.64-4.36.73-8.69.6-12.92-.7-7.03-2.15-10.78-7.12-11.72-14.26-.67-5.17-.11-10.38-.28-14.63zM807.11 88.28c0 15.4-.01 30.79.03 46.19 0 1.14-.34 1.39-1.41 1.37-4.8-.05-9.6-.05-14.39 0-.94.01-1.21-.25-1.21-1.21.02-30.91.03-61.82 0-92.73 0-1.04.32-1.24 1.29-1.23 4.8.05 9.6.05 14.39 0 1.04-.01 1.34.23 1.33 1.31-.05 15.43-.03 30.87-.03 46.3zM761.56 105.2c0-9.75.01-19.51-.02-29.26 0-.97.2-1.28 1.23-1.27 4.88.06 9.75.04 14.63.01.84-.01 1.08.24 1.08 1.07-.02 19.63-.02 39.26.01 58.88 0 1.02-.38 1.16-1.26 1.16-4.84-.03-9.67-.04-14.51.01-.98.01-1.17-.31-1.17-1.22.02-9.79.01-19.59.01-29.38zM818.14 105.2c0-9.75.01-19.5-.02-29.25 0-.97.2-1.29 1.23-1.27 4.83.06 9.67.04 14.51.01.83-.01 1.18.12 1.18 1.08-.03 19.62-.03 39.25 0 58.87 0 1-.35 1.17-1.23 1.16-4.84-.04-9.67-.05-14.51.01-.99.01-1.17-.32-1.17-1.23.02-9.8.01-19.59.01-29.38z"/><path class="st0" d="M103.1 184.07c-21.2-7.12-37.4-20.25-48.93-39.47 6.27-.5 12.34-.99 18.42-1.48 1.55-.12 3.11-.18 4.65-.39.9-.12 1.45.12 2.02.82 5.37 6.41 11.76 11.58 19.11 15.55.69.37.92.81 1.04 1.55 1.22 7.64 2.48 15.28 3.73 22.92.02.1-.01.22-.04.5z"/><path class="st1" d="M770.02 47.34c5.26-.01 9.4 4.13 9.43 9.42.03 5.26-4.11 9.48-9.35 9.53-5.3.05-9.55-4.15-9.54-9.46 0-5.37 4.1-9.48 9.46-9.49zM826.7 47.34c5.23.02 9.37 4.21 9.38 9.5.01 5.2-4.26 9.54-9.45 9.44-6.26-.11-9.67-5.19-9.49-9.76.21-5.15 4.27-9.2 9.56-9.18z"/></svg>