<svg id="Vector logo" data-name="WORT-/BILDMARKE sRGB" xmlns="http://www.w3.org/2000/svg" viewBox="0 0 283.46 65.86"><defs><style/></defs><g class="c-logo-svg" id="js-logo-svg"><path d="M226.43 49.39v16.47l57.03-32.93L226.43 0v16.46l28.52 16.47-28.52 16.46z" fill="#b70032"/><path d="M24.7 18.67h8.23L16.46 47.19 0 18.67h8.23l8.23 14.26 8.24-14.26zM151.9 18a15 15 0 1015 15 15 15 0 00-15-15zm0 22.85a7.88 7.88 0 117.88-7.88 7.88 7.88 0 01-7.88 7.84zm-62.64-.04a7.88 7.88 0 115.57-13.45l5-5a15 15 0 100 21.17l-5-5a7.85 7.85 0 01-5.57 2.28zm16.33-15.72h9.62v22.1h7.13v-22.1h9.63v-6.42h-26.38v6.42zm-63.38 22.1h22.1v-6.42H49.34v-4.99h11.69v-6.27H49.34v-4.42h14.97v-6.42h-22.1v28.52zm162.12-19a9.52 9.52 0 00-9.5-9.52h-17.59v28.52h7.13v-9.48h6.24l5.49 9.48h8.23L198.43 37a9.47 9.47 0 005.9-8.81zm-10.16 3.17h-9.8V25h9.8a3.18 3.18 0 010 6.35z"/></g></svg>