<svg xmlns="http://www.w3.org/2000/svg" xmlns:svg="http://www.w3.org/2000/svg" id="Layer_1" width="533.333" height="533.333" x="0" y="0" version="1.1" viewBox="0 0 652.672 498.877" xml:space="preserve"><metadata id="metadata5737"/><style id="style5654" type="text/css">.st0{fill:#338033}</style><g id="g1" transform="translate(-142.17407,-228.01445)"><rect style="opacity:1;fill:#fff;fill-opacity:1;stroke:#338033;stroke-width:9.2515;stroke-linecap:square;stroke-linejoin:miter;stroke-miterlimit:4;stroke-dasharray:none;stroke-dashoffset:0;stroke-opacity:1" id="rect3167" width="643.421" height="643.421" x="146.8" y="155.743" ry="55.705"/><g id="g5658" transform="matrix(0.7945429,0,0,0.7945429,77.81989,233.96026)"><path style="fill:#338033" id="path5660" d="m 220.3,223.1 423.9,169.6 c -87,9.9 -165,23.9 -252.1,58.1 l 87,-91.5 -67.2,-28.5 -214.7,213.2 84.5,58.9 C 403.4,537.7 616,500.2 723.4,500.6 L 809,339.4 306.1,168.7 Z" class="st0"/><polygon style="fill:#338033" id="polygon5662" points="104.5 479.3 332.6 297.2 399.5 325.5 175.4 528.8" class="st0"/><polygon style="fill:#338033" id="polygon5664" points="395.4 112.1 315.6 162.7 819.8 322.3 866.8 235.5" class="st0"/><polygon style="fill:#338033" id="polygon5666" points="726.5 33.5 673.5 25 544.4 128.1 604 142.8" class="st0"/><polygon style="fill:#338033" id="polygon5668" points="671 159.3 783.7 42.7 732.4 34.5 614.2 145.3" class="st0"/></g></g></svg>