<?xml version="1.0" encoding="utf-8"?>
<!-- Generator: Adobe Illustrator 19.2.1, SVG Export Plug-In . SVG Version: 6.00 Build 0)  -->
<svg version="1.1" id="Layer_1" xmlns="http://www.w3.org/2000/svg" xmlns:xlink="http://www.w3.org/1999/xlink" x="0px" y="0px"
	 viewBox="0 0 971.3 1050" style="enable-background:new 0 0 971.3 1050;" xml:space="preserve">
<style type="text/css">
	.st0{fill:#338033;}
</style>
<g>
	<g>
		<path class="st0" d="M220.3,223.1l423.9,169.6c-87,9.9-165,23.9-252.1,58.1l87-91.5l-67.2-28.5L197.2,544l84.5,58.9
			C403.4,537.7,616,500.2,723.4,500.6L809,339.4L306.1,168.7L220.3,223.1z"/>
		<polygon class="st0" points="332.6,297.2 399.5,325.5 175.4,528.8 104.5,479.3 		"/>
		<polygon class="st0" points="315.6,162.7 819.8,322.3 866.8,235.5 395.4,112.1 		"/>
		<polygon class="st0" points="673.5,25 544.4,128.1 604,142.8 726.5,33.5 		"/>
		<polygon class="st0" points="783.7,42.7 732.4,34.5 614.2,145.3 671,159.3 		"/>
	</g>
	<g>
		<g>
			<path d="M27.7,924.5h115c4.7,0,8.4-0.8,11-2.5c2.6-1.7,4.5-3.7,5.8-6.1c1.3-2.4,2.1-4.8,2.4-7.4c0.3-2.6,0.4-4.7,0.4-6.5
				c0-2-0.2-4-0.6-6.2c-0.4-2.2-1.3-4.3-2.7-6.4c-1.4-2.1-3.4-4-6.1-5.9c-2.7-1.9-6.3-3.5-10.8-4.9l-81.8-25.8
				c-0.8-0.2-2.1-0.6-4-1.3c-1.9-0.7-4-1.7-6.4-3c-2.4-1.3-4.8-2.8-7.4-4.6c-2.6-1.8-4.8-4-6.8-6.5c-2.4-2.8-4.3-5.8-5.6-9.2
				c-1.4-3.4-2.5-6.8-3.3-10.2c-0.8-3.5-1.3-6.9-1.5-10.2c-0.2-3.4-0.3-6.5-0.3-9.5c0-6.3,0.7-12.9,2.2-19.9
				c1.5-6.9,5.2-13.1,11.1-18.7c5.3-5.1,11.1-8.3,17.2-9.6c6.1-1.3,11.8-1.9,16.9-1.9h119.5v31.1H85.8c-2.8,0-5.6,0.3-8.4,0.7
				c-2.9,0.5-5.5,1.8-7.9,4c-2.6,2.4-4.1,5.1-4.6,8.3c-0.5,3.2-0.7,5.7-0.7,7.7c0,4.5,1.1,8.9,3.4,13c2.3,4.2,7.6,7.6,15.9,10.4
				l75.9,24c6.9,2.2,12.8,4.4,17.6,6.8c4.8,2.4,8.8,5,12,8c3.2,3,5.6,6.3,7.4,9.9c1.8,3.7,3.1,7.3,4,11c0.9,3.7,1.5,7.2,1.8,10.5
				c0.3,3.4,0.4,6.2,0.4,8.6c0,6.5-0.6,13.2-1.9,20c-1.3,6.8-4.1,13-8.4,18.5c-5.1,6.7-10.9,10.9-17.2,12.5
				c-6.3,1.6-12.9,2.4-19.9,2.4H27.7V924.5z"/>
			<path d="M329,926.4c3.7-0.3,7.4-0.9,11.1-1.8c3.8-0.9,7.4-2.2,11-4c3.6-1.8,6.7-4.1,9.5-7.1c2.4-2.6,4.2-5.4,5.5-8.6
				c1.3-3.2,2.3-6.3,3-9.5c0.7-3.2,1.1-6.3,1.2-9.5c0.1-3.2,0.1-6,0.1-8.6V748.1h39.1v134.6c0,8.9-1,17.9-3.1,27.1
				s-7.1,17.8-15,25.9c-5.1,5.3-10.9,9.5-17.3,12.5c-6.4,3-12.9,5.2-19.4,6.7c-6.5,1.5-12.8,2.4-19,2.7c-6.1,0.3-11.6,0.4-16.3,0.4
				c-4.7,0-10.2-0.1-16.3-0.4c-6.1-0.3-12.4-1.2-19-2.7c-6.5-1.5-13-3.7-19.4-6.7c-6.4-3-12.2-7.1-17.3-12.5
				c-7.9-8.1-12.9-16.7-15-25.9s-3.1-18.2-3.1-27.1V748.1h39.1v129.2c0,5.7,0.4,11.9,1.3,18.4c0.9,6.5,3.8,12.5,8.7,17.8
				c2.8,3,5.9,5.3,9.3,7.1c3.5,1.8,7,3.1,10.7,4c3.7,0.9,7.3,1.5,11,1.8c3.7,0.3,7,0.4,9.9,0.4C322.1,926.8,325.3,926.7,329,926.4z"
				/>
			<path d="M603.9,933.1c-1.6,4-3.1,7.5-4.6,10.5c-1.5,3.1-3.3,5.7-5.5,7.9c-2.2,2.2-4.8,3.8-8,4.9c-3.2,1.1-7,1.6-11.6,1.6
				c-4.9,0-9-0.7-12.3-2.1c-3.3-1.4-6-3.2-8.2-5.5c-2.2-2.3-4-4.9-5.3-7.9c-1.4-3-2.7-6.1-3.9-9.5l-53.1-138.4
				c-0.4-1.2-1.1-2.6-2.1-4.3c-1-1.7-2-2.5-3-2.5c-1.6,0-2.5,0.9-2.8,2.8c-0.3,1.9-0.4,3-0.4,3.4l0.9,161.5H445V773
				c0-6.7,1.5-11.9,4.4-15.6c3-3.7,6.3-6.4,10.1-8.2c3.8-1.8,7.5-2.8,11.1-3.1c3.7-0.3,6.3-0.4,7.9-0.4c5.9,0,10.9,0.7,15,2.1
				c4,1.4,7.4,3.3,10.1,5.8c2.7,2.5,4.9,5.3,6.7,8.6c1.8,3.3,3.4,6.7,4.7,10.2l53.7,138.4c1,2.2,1.9,4,2.8,5.5
				c0.9,1.5,1.8,2.2,2.8,2.2c1,0,1.9-0.7,2.8-2.2c0.9-1.5,1.8-3.3,2.8-5.5l53.7-138.4c2.2-5.9,4.6-10.6,7.3-14.1
				c2.7-3.5,5.6-6.1,8.7-8c3.2-1.9,6.4-3.1,9.8-3.7c3.4-0.6,6.9-0.9,10.7-0.9c9.7,0,17.7,2.2,24,6.5c6.3,4.3,9.5,11.3,9.5,20.7
				v182.6h-39.1l1.2-161.5c0-2.8-0.4-4.5-1.3-5.2c-0.9-0.7-1.6-1-2.2-1c-1,0-2,0.8-3,2.5c-1,1.7-1.7,3.1-2.1,4.3L603.9,933.1z"/>
			<path d="M859.9,746c7.2,0.2,14.5,1,21.9,2.4c7.4,1.4,14.6,3.6,21.6,6.5c7,3,13.4,7.2,19.1,12.7c5.3,5.1,9.6,11.2,12.7,18.1
				c3.2,6.9,5.6,14.1,7.3,21.6c1.7,7.5,2.7,15.1,3.1,22.8c0.4,7.7,0.6,14.9,0.6,21.6c0,6.9-0.3,14.2-0.7,21.8
				c-0.5,7.6-1.5,15.2-3.1,22.7c-1.6,7.5-4,14.7-7.1,21.6c-3.2,6.9-7.4,12.9-12.7,18.1c-5.7,5.5-12.1,9.8-19.1,12.7
				c-7,3-14.2,5.1-21.6,6.5c-7.4,1.4-14.8,2.2-22.1,2.4c-7.3,0.2-13.9,0.3-19.9,0.3c-6.1,0-12.8-0.1-20-0.3
				c-7.2-0.2-14.5-1-21.9-2.4c-7.4-1.4-14.6-3.6-21.6-6.5c-7-3-13.4-7.2-19.1-12.7c-5.9-5.7-10.5-12.3-13.8-19.6
				c-3.3-7.3-5.6-14.8-7.1-22.4c-1.5-7.6-2.4-15.1-2.7-22.4c-0.3-7.3-0.4-13.9-0.4-19.9c0-7.1,0.2-14.5,0.6-22.1
				c0.4-7.6,1.4-15.1,3-22.5c1.6-7.4,4-14.5,7.1-21.3c3.2-6.8,7.6-12.9,13.3-18.2c5.7-5.5,12.1-9.8,19.1-12.7c7-3,14.2-5.1,21.5-6.5
				c7.3-1.4,14.6-2.2,21.8-2.4c7.2-0.2,14-0.3,20.3-0.3C846,745.7,852.6,745.8,859.9,746z M774.5,873.9c0.7,6.2,1.6,11.7,2.8,16.3
				c1.2,4.6,2.5,8.5,4,11.6c1.5,3.1,3.1,5.7,4.9,7.9c3,4,6.4,7.1,10.4,9.3c3.9,2.3,8.2,4,12.7,5.2c4.5,1.2,9.4,1.9,14.5,2.2
				c5.1,0.3,10.4,0.4,15.7,0.4c5.3,0,10.5-0.1,15.6-0.4c5-0.3,9.9-1,14.5-2.2c4.6-1.2,8.9-2.9,12.9-5.2c4-2.3,7.5-5.4,10.7-9.3
				c1.8-2.2,3.4-4.8,4.9-8c1.5-3.2,2.8-7,4-11.6c1.2-4.5,2.1-10,2.8-16.3c0.7-6.3,1-13.6,1-21.9c0-8.9-0.3-16.5-1-23
				c-0.7-6.4-1.6-11.9-2.8-16.5c-1.2-4.5-2.6-8.3-4.1-11.3c-1.6-3-3.2-5.4-4.7-7.4c-6.1-7.5-13.9-12.2-23.4-14.1
				c-9.5-1.9-19.6-2.8-30.2-2.8c-10.9,0-20.9,0.9-30.2,2.8c-9.3,1.9-17,6.6-23.1,14.1c-4,5.1-7.1,12.1-9.3,20.9
				c-2.3,8.8-3.4,21.2-3.4,37.2C773.5,860.3,773.8,867.7,774.5,873.9z"/>
		</g>
		<g>
			<path d="M25,1019.7l3.5-4.1c3.1,2.7,6.3,4.3,10.3,4.3c3.6,0,5.8-1.7,5.8-4.1v-0.1c0-2.3-1.3-3.6-7.4-5c-7-1.7-10.9-3.7-10.9-9.8
				v-0.1c0-5.6,4.7-9.5,11.2-9.5c4.8,0,8.6,1.4,11.9,4.1l-3.1,4.3c-2.9-2.2-5.9-3.4-8.9-3.4c-3.4,0-5.3,1.7-5.3,3.9v0.1
				c0,2.5,1.5,3.6,7.8,5.1c6.9,1.7,10.5,4.2,10.5,9.6v0.1c0,6.1-4.8,9.8-11.7,9.8C33.6,1024.9,28.9,1023.2,25,1019.7z"/>
			<path d="M60.9,991.7h5.7v32.7h-5.7V991.7z"/>
			<path d="M78.9,991.7H85l10,15.5l10-15.5h6.1v32.7h-5.7V1001L95,1016.4h-0.2l-10.2-15.3v23.4h-5.7V991.7z"/>
			<path d="M122.5,1010.6v-18.8h5.7v18.6c0,6.1,3.1,9.3,8.3,9.3c5.1,0,8.2-3,8.2-9.1v-18.8h5.7v18.6c0,9.8-5.5,14.7-14.1,14.7
				C127.9,1025,122.5,1020,122.5,1010.6z"/>
			<path d="M161.9,991.7h5.7v27.5h17.2v5.2h-22.9V991.7z"/>
			<path d="M205.9,991.5h5.3l14.4,33h-6.1l-3.3-7.9h-15.5l-3.4,7.9h-5.9L205.9,991.5z M214.1,1011.4l-5.7-13.1l-5.6,13.1H214.1z"/>
			<path d="M238.6,997h-10.4v-5.3h26.5v5.3h-10.4v27.4h-5.8V997z"/>
			<path d="M264.6,991.7h5.7v32.7h-5.7V991.7z"/>
			<path d="M281.2,1008.2L281.2,1008.2c0-9.3,7.1-17,17.2-17s17.1,7.6,17.1,16.8v0.1c0,9.2-7.1,16.9-17.2,16.9
				C288.2,1025,281.2,1017.4,281.2,1008.2z M309.4,1008.2L309.4,1008.2c0-6.5-4.6-11.7-11.1-11.7c-6.5,0-11,5.2-11,11.5v0.1
				c0,6.4,4.6,11.6,11.1,11.6C304.8,1019.7,309.4,1014.5,309.4,1008.2z"/>
			<path d="M325.8,991.7h5.3l17.5,22.6v-22.6h5.7v32.7h-4.8l-18-23.3v23.3h-5.7V991.7z"/>
			<path d="M382.3,1008.2L382.3,1008.2c0-9.3,7.1-17,17.2-17c10,0,17.1,7.6,17.1,16.8v0.1c0,9.2-7.1,16.9-17.2,16.9
				C389.3,1025,382.3,1017.4,382.3,1008.2z M410.5,1008.2L410.5,1008.2c0-6.5-4.6-11.7-11.1-11.7c-6.5,0-11,5.2-11,11.5v0.1
				c0,6.4,4.6,11.6,11.1,11.6C406,1019.7,410.5,1014.5,410.5,1008.2z"/>
			<path d="M427,991.7h24.4v5.2h-18.6v8.9h16.5v5.2h-16.5v13.3H427V991.7z"/>
			<path d="M478.2,1010.6v-18.8h5.8v18.6c0,6.1,3.1,9.3,8.3,9.3c5.1,0,8.2-3,8.2-9.1v-18.8h5.7v18.6c0,9.8-5.5,14.7-14.1,14.7
				C483.6,1025,478.2,1020,478.2,1010.6z"/>
			<path d="M517.6,991.7h14.6c4.1,0,7.3,1.2,9.4,3.3c1.7,1.8,2.7,4.2,2.7,7.1v0.1c0,5.4-3.2,8.6-7.8,9.9l8.8,12.4h-6.8l-8-11.4h-7.2
				v11.4h-5.7V991.7z M531.7,1007.9c4.1,0,6.7-2.1,6.7-5.5v-0.1c0-3.5-2.5-5.4-6.8-5.4h-8.4v11H531.7z"/>
			<path d="M554.9,991.7h14.7c3.7,0,6.7,1,8.6,2.9c1.4,1.4,2.2,3.2,2.2,5.4v0.1c0,3.9-2.2,6-4.7,7.3c3.8,1.3,6.5,3.5,6.5,7.9v0.1
				c0,5.8-4.8,9-12.1,9h-15.1V991.7z M574.5,1001c0-2.6-2.1-4.2-5.7-4.2h-8.3v8.7h7.9C572.1,1005.5,574.5,1004.1,574.5,1001
				L574.5,1001z M569.6,1010.4h-9.1v9h9.5c3.9,0,6.3-1.5,6.3-4.5v-0.1C576.4,1012,574.2,1010.4,569.6,1010.4z"/>
			<path d="M603.7,991.5h5.3l14.4,33h-6.1l-3.3-7.9h-15.5l-3.4,7.9h-5.9L603.7,991.5z M611.9,1011.4l-5.7-13.1l-5.6,13.1H611.9z"/>
			<path d="M632.5,991.7h5.3l17.5,22.6v-22.6h5.7v32.7h-4.8l-18-23.3v23.3h-5.7V991.7z"/>
			<path d="M690.5,991.7h6.1l10,15.5l10-15.5h6.1v32.7h-5.8V1001l-10.3,15.4h-0.2l-10.2-15.3v23.4h-5.7V991.7z"/>
			<path d="M733.1,1008.2L733.1,1008.2c0-9.3,7.1-17,17.2-17c10,0,17.1,7.6,17.1,16.8v0.1c0,9.2-7.1,16.9-17.2,16.9
				C740.1,1025,733.1,1017.4,733.1,1008.2z M761.3,1008.2L761.3,1008.2c0-6.5-4.6-11.7-11.1-11.7c-6.5,0-11,5.2-11,11.5v0.1
				c0,6.4,4.6,11.6,11.1,11.6C756.7,1019.7,761.3,1014.5,761.3,1008.2z"/>
			<path d="M777.8,991.7h14.7c3.7,0,6.7,1,8.6,2.9c1.4,1.4,2.2,3.2,2.2,5.4v0.1c0,3.9-2.2,6-4.7,7.3c3.8,1.3,6.5,3.5,6.5,7.9v0.1
				c0,5.8-4.8,9-12.1,9h-15.1V991.7z M797.4,1001c0-2.6-2.1-4.2-5.7-4.2h-8.3v8.7h7.9C795,1005.5,797.4,1004.1,797.4,1001
				L797.4,1001z M792.5,1010.4h-9.1v9h9.5c3.9,0,6.3-1.5,6.3-4.5v-0.1C799.3,1012,797.1,1010.4,792.5,1010.4z"/>
			<path d="M815.3,991.7h5.7v32.7h-5.7V991.7z"/>
			<path d="M833.3,991.7h5.7v27.5h17.2v5.2h-22.9V991.7z"/>
			<path d="M866.1,991.7h5.7v32.7h-5.7V991.7z"/>
			<path d="M892.1,997h-10.4v-5.3h26.5v5.3h-10.4v27.4h-5.8V997z"/>
			<path d="M927.5,1011.5l-13-19.8h6.8l9.1,14.4l9.3-14.4h6.6l-13,19.7v13h-5.8V1011.5z"/>
		</g>
	</g>
</g>
</svg>
